<svg width="22" height="22" viewBox="0 0 22 22" fill="none" xmlns="http://www.w3.org/2000/svg">
<path d="M11 0C4.93477 0 0 4.93435 0 11C0 17.0657 4.93477 22 11 22C17.0652 22 22 17.0657 22 11C22 4.93435 17.0652 0 11 0ZM16.2885 11.8462H11.8462V16.5C11.8462 16.9671 11.4671 17.3462 11 17.3462C10.5329 17.3462 10.1538 16.9671 10.1538 16.5V11.8462H5.71154C5.24446 11.8462 4.86538 11.4671 4.86538 11C4.86538 10.5329 5.24446 10.1538 5.71154 10.1538H10.1538V5.92308C10.1538 5.456 10.5329 5.07692 11 5.07692C11.4671 5.07692 11.8462 5.456 11.8462 5.92308V10.1538H16.2885C16.7555 10.1538 17.1346 10.5329 17.1346 11C17.1346 11.4671 16.7555 11.8462 16.2885 11.8462Z" fill="#2081F3"/>
</svg>
