<svg width="11" height="11" viewBox="0 0 11 11" fill="none" xmlns="http://www.w3.org/2000/svg">
<path d="M10.4954 9.99976H0.499904C0.22374 9.99976 0 10.2236 0 10.5001C0 10.7762 0.22374 11 0.499904 11H10.4952C10.7713 11 10.9951 10.7762 10.9951 10.5001C10.9948 10.2236 10.7711 9.99976 10.4954 9.99976Z" fill="white"/>
<path d="M1.1249 8.69949C0.84874 8.69949 0.625 8.92334 0.625 9.19964C0.625 9.47593 0.84874 9.70002 1.1249 9.70002H9.87088C10.147 9.70002 10.3708 9.47593 10.3708 9.19964C10.3708 8.92334 10.147 8.69949 9.87088 8.69949H9.74614V4.19914H9.87088C10.0092 4.19914 10.1206 4.08721 10.1206 3.9493C10.1206 3.81139 10.0087 3.69946 9.87088 3.69946H1.1249C0.986822 3.69946 0.875186 3.81139 0.875186 3.9493C0.875186 4.08721 0.987056 4.19914 1.1249 4.19914H1.24988V8.69926H1.1249V8.69949ZM8.74633 4.19914V8.69926H7.24709V4.19914H8.74633ZM6.24728 4.19914V8.69926H4.74804V4.19914H6.24728ZM2.24922 4.19914H3.74846V8.69926H2.24922V4.19914Z" fill="white"/>
<path d="M0.499913 3.24988H10.4952C10.4968 3.24988 10.4987 3.24988 10.5001 3.24988C10.7765 3.24988 11 3.02603 11 2.74974C11 2.5301 10.8586 2.34396 10.6623 2.27652L5.70303 0.0439031C5.57267 -0.0146344 5.42359 -0.0146344 5.293 0.0439031L0.294897 2.29385C0.0798162 2.39078 -0.0383726 2.62447 0.0112433 2.85487C0.0606252 3.08527 0.264238 3.24988 0.499913 3.24988Z" fill="white"/>
</svg>
