<svg width="14" height="14" viewBox="0 0 14 14" fill="none" xmlns="http://www.w3.org/2000/svg">
<path d="M13.3578 12.727H0.636241C0.28476 12.727 0 13.0119 0 13.3638C0 13.7152 0.28476 14.0001 0.636241 14.0001H13.3575C13.709 14.0001 13.9937 13.7152 13.9937 13.3638C13.9934 13.0119 13.7087 12.727 13.3578 12.727Z" fill="#2081F3"/>
<path d="M1.43312 11.0721C1.08163 11.0721 0.796875 11.357 0.796875 11.7087C0.796875 12.0603 1.08163 12.3455 1.43312 12.3455H12.5644C12.9158 12.3455 13.2006 12.0603 13.2006 11.7087C13.2006 11.357 12.9158 11.0721 12.5644 11.0721H12.4056V5.34439H12.5644C12.7404 5.34439 12.8822 5.20194 12.8822 5.02641C12.8822 4.85088 12.7398 4.70844 12.5644 4.70844H1.43312C1.25738 4.70844 1.11529 4.85088 1.11529 5.02641C1.11529 5.20194 1.25767 5.34439 1.43312 5.34439H1.59218V11.0718H1.43312V11.0721ZM11.1331 5.34439V11.0718H9.22499V5.34439H11.1331ZM7.9525 5.34439V11.0718H6.04438V5.34439H7.9525ZM2.86406 5.34439H4.77219V11.0718H2.86406V5.34439Z" fill="#2081F3"/>
<path d="M0.636253 4.13621H13.3575C13.3596 4.13621 13.362 4.13621 13.3638 4.13621C13.7155 4.13621 14 3.85131 14 3.49966C14 3.22013 13.8201 2.98322 13.5702 2.89739L7.2584 0.0558766C7.09249 -0.0186255 6.90275 -0.0186255 6.73654 0.0558766L0.375323 2.91944C0.101584 3.04282 -0.0488379 3.34023 0.0143096 3.63347C0.0771593 3.92671 0.336302 4.13621 0.636253 4.13621Z" fill="#2081F3"/>
</svg>
