<svg width="19" height="19" viewBox="0 0 19 19" fill="none" xmlns="http://www.w3.org/2000/svg">
<path d="M4.38802 4.60144H5.28059C5.60838 4.60144 5.87438 4.39888 5.87438 4.14508V0.455141C5.87438 0.202556 5.6109 0 5.28059 0H4.38802C4.06024 0 3.79297 0.203776 3.79297 0.455141V4.14508C3.79297 4.39888 4.06024 4.60144 4.38802 4.60144Z" fill="#F4343D"/>
<path d="M13.7188 4.60144H14.6101C14.9417 4.60144 15.2039 4.39888 15.2039 4.14508V0.455141C15.2039 0.202556 14.9417 0 14.6101 0H13.7188C13.391 0 13.125 0.203776 13.125 0.455141V4.14508C13.1263 4.39888 13.391 4.60144 13.7188 4.60144Z" fill="#F4343D"/>
<path d="M18.2814 1.7608H15.9163V4.58683C15.9163 5.21768 15.3301 5.73139 14.609 5.73139H13.7177C12.9965 5.73139 12.4091 5.21768 12.4091 4.58683V1.7608H6.58463V4.58683C6.58463 5.21768 5.99841 5.73139 5.27603 5.73139H4.38723C3.66864 5.73139 3.07989 5.21768 3.07989 4.58683V1.7608H0.713556C0.320218 1.7608 0 2.07196 0 2.45389V18.3094C0 18.6913 0.320218 19 0.437463 19H18.0091C18.6773 19 19 18.6913 19 18.3094V2.45145C18.9987 2.07196 18.676 1.7608 18.2814 1.7608ZM17.8981 17.4333C17.8981 18.1215 17.2854 18.0617 17.2854 18.0617H10.8798C10.8798 18.0617 14.7968 16.1618 17.8981 13.4639C17.8981 13.4639 17.8981 16.6377 17.8981 17.4333ZM18.033 11.5604C17.7645 12.5866 17.1707 13.7751 16.0878 12.9978C14.5094 11.8666 12.9537 10.9063 12.7532 13.1808C12.5881 15.0966 8.92953 17.7017 8.13277 18.2459H1.18884C1.06403 18.2459 0.965696 18.1495 0.965696 18.03V8.25602C0.965696 8.13522 1.06529 8.03882 1.18884 8.03882H17.8099C17.9322 8.03882 18.0343 8.13522 18.0343 8.25602L18.033 11.5604Z" fill="#F4343D"/>
<path d="M6.56903 9.72507H3.79297V12.4108H6.56903V9.72507Z" fill="#F4343D"/>
<path d="M11.1368 9.72507H8.36328V12.4108H11.1368V9.72507Z" fill="#F4343D"/>
<path d="M6.56903 13.7994H3.79297V16.4851H6.56903V13.7994Z" fill="#F4343D"/>
<path d="M8.36328 16.4851H9.16635C9.75257 15.9531 10.6388 15.0733 11.1368 14.4693V13.7994H8.36328V16.4851Z" fill="#F4343D"/>
<path d="M12.7773 10.9917C13.0572 10.7269 13.3938 10.6463 13.6964 10.6463C14.2675 10.6463 14.8966 10.955 15.5509 11.3736V9.72507H12.7773V10.9917Z" fill="#F4343D"/>
</svg>
