<svg width="12" height="12" viewBox="0 0 12 12" fill="none" xmlns="http://www.w3.org/2000/svg">
<path d="M2.77035 2.90617H3.33408C3.5411 2.90617 3.70911 2.77824 3.70911 2.61794V0.287457C3.70911 0.12793 3.5427 0 3.33408 0H2.77035C2.56333 0 2.39453 0.128701 2.39453 0.287457V2.61794C2.39453 2.77824 2.56333 2.90617 2.77035 2.90617Z" fill="#9F9F9F"/>
<path d="M8.66409 2.90617H9.22702C9.43643 2.90617 9.60205 2.77824 9.60205 2.61794V0.287457C9.60205 0.12793 9.43643 0 9.22702 0H8.66409C8.45707 0 8.28906 0.128701 8.28906 0.287457V2.61794C8.28986 2.77824 8.45707 2.90617 8.66409 2.90617Z" fill="#9F9F9F"/>
<path d="M11.5461 1.11206H10.0524V2.89692C10.0524 3.29535 9.68217 3.6198 9.22673 3.6198H8.66379C8.20835 3.6198 7.8373 3.29535 7.8373 2.89692V1.11206H4.15872V2.89692C4.15872 3.29535 3.78847 3.6198 3.33223 3.6198H2.77088C2.31703 3.6198 1.94519 3.29535 1.94519 2.89692V1.11206H0.450667C0.202243 1.11206 0 1.30858 0 1.5498V11.5638C0 11.805 0.202243 12 0.276292 12H11.3742C11.7962 12 12 11.805 12 11.5638V1.54826C11.9992 1.30858 11.7954 1.11206 11.5461 1.11206ZM11.3041 11.0105C11.3041 11.4451 10.9171 11.4074 10.9171 11.4074H6.87147C6.87147 11.4074 9.34536 10.2074 11.3041 8.50349C11.3041 8.50349 11.3041 10.508 11.3041 11.0105ZM11.3893 7.30126C11.2197 7.94939 10.8447 8.70001 10.1607 8.2091C9.16382 7.4947 8.18128 6.88818 8.05467 8.3247C7.95037 9.53464 5.63971 11.18 5.13649 11.5237H0.750846C0.672019 11.5237 0.609913 11.4628 0.609913 11.3873V5.2143C0.609913 5.13801 0.672815 5.07712 0.750846 5.07712H11.2484C11.3256 5.07712 11.3901 5.13801 11.3901 5.2143L11.3893 7.30126Z" fill="#9F9F9F"/>
<path d="M4.14783 6.14215H2.39453V7.83838H4.14783V6.14215Z" fill="#9F9F9F"/>
<path d="M7.03296 6.14215H5.28125V7.83838H7.03296V6.14215Z" fill="#9F9F9F"/>
<path d="M4.14783 8.71539H2.39453V10.4116H4.14783V8.71539Z" fill="#9F9F9F"/>
<path d="M5.28125 10.4116H5.78845C6.1587 10.0756 6.71845 9.51997 7.03296 9.13849V8.71539H5.28125V10.4116Z" fill="#9F9F9F"/>
<path d="M8.07031 6.9421C8.24708 6.77487 8.45967 6.724 8.65077 6.724C9.01146 6.724 9.40878 6.91898 9.82202 7.18332V6.14215H8.07031V6.9421Z" fill="#9F9F9F"/>
</svg>
