<svg width="14" height="16" viewBox="0 0 14 16" fill="none" xmlns="http://www.w3.org/2000/svg">
<path d="M0.277724 14.8819C1.033 13.2881 1.70371 11.7915 1.61485 10.9943C1.53002 10.2323 1.81139 9.42523 2.22986 8.63032C2.05848 8.5312 1.94235 8.33935 1.94235 8.11889V0.583071C1.94235 0.261057 2.19005 0 2.49567 0H13.4467C13.7523 0 14 0.261057 14 0.583071V8.119C14 8.44105 13.7523 8.70203 13.4467 8.70203H10.4806C10.4662 8.93534 10.2665 9.25504 9.78288 9.56085C8.92538 10.103 11.2143 12.3092 5.55143 12.8627C5.17237 13.7039 4.49552 15.6946 4.49552 15.6946C4.44404 15.8759 4.28587 16 4.10637 16H0.40621C0.265976 16 0.13573 15.9238 0.0615349 15.7985C-0.0126247 15.6732 -0.0202408 15.5164 0.0413427 15.3838C0.112915 15.2297 0.192894 15.0608 0.277724 14.8819ZM13.087 0.962105H2.85536V2.30158H13.087V0.962105ZM13.087 4.28898H2.85536V7.57284C3.01119 7.33 3.1704 7.09083 3.32594 6.85733C3.59807 6.4488 3.85508 6.06295 4.06559 5.70024C4.12336 5.60066 4.18312 5.48534 4.24096 5.37376C4.36711 5.13015 4.50066 4.88019 4.62361 4.73442C4.7018 4.64178 4.81239 4.58884 4.93182 4.59085C5.04942 4.59229 5.16069 4.64738 5.23683 4.74192C5.29417 4.81306 5.35281 4.90544 5.41116 5.01642C5.72562 5.61501 5.71703 6.80323 5.24254 7.73997H13.087V4.28898Z" fill="black"/>
</svg>
