<svg width="21" height="19" viewBox="0 0 21 19" fill="none" xmlns="http://www.w3.org/2000/svg">
<path d="M6.10055 11.019C6.69062 11.019 7.26099 10.9802 7.80072 10.9079V4.88332C7.26104 4.81112 6.69062 4.77231 6.10055 4.77231C2.73131 4.77231 0 6.03384 0 7.59008V8.20117C0 9.75735 2.73131 11.019 6.10055 11.019Z" fill="#F4343D"/>
<path d="M6.10055 14.1648C6.69062 14.1648 7.26099 14.126 7.80072 14.0538V12.2879C7.26088 12.3601 6.69078 12.3995 6.10055 12.3995C3.15957 12.3995 0.704893 11.4382 0.128305 10.1588C0.0443368 10.3452 0 10.5381 0 10.7359V11.347C0 12.9033 2.73131 14.1648 6.10055 14.1648Z" fill="#F4343D"/>
<path d="M7.80072 15.5711V15.4338C7.26088 15.506 6.69078 15.5454 6.10055 15.5454C3.15957 15.5454 0.704892 14.5841 0.128305 13.3047C0.0443368 13.4911 0 13.684 0 13.8818V14.4929C0 16.0492 2.73131 17.3107 6.10055 17.3107C6.77433 17.3107 7.42239 17.2601 8.02841 17.167C7.8782 16.854 7.80072 16.524 7.80072 16.1822V15.5711Z" fill="#F4343D"/>
<path d="M14.8974 0C11.5282 0 8.79688 1.26153 8.79688 2.81777V3.42886C8.79688 4.9851 11.5282 6.24663 14.8974 6.24663C18.2666 6.24663 20.998 4.9851 20.998 3.42886V2.81777C20.998 1.26153 18.2666 0 14.8974 0Z" fill="#F4343D"/>
<path d="M14.8974 7.62715C11.9564 7.62715 9.50177 6.66592 8.92518 5.38651C8.84121 5.57281 8.79688 5.76577 8.79688 5.96363V6.57472C8.79688 8.13096 11.5282 9.39249 14.8974 9.39249C18.2666 9.39249 20.998 8.13096 20.998 6.57472V5.96363C20.998 5.76577 20.9536 5.57281 20.8697 5.38651C20.2931 6.66592 17.8384 7.62715 14.8974 7.62715Z" fill="#F4343D"/>
<path d="M14.8974 10.7731C11.9564 10.7731 9.50177 9.81184 8.92518 8.53247C8.84121 8.71877 8.79688 8.91173 8.79688 9.10959V9.72068C8.79688 11.277 11.5282 12.5385 14.8974 12.5385C18.2666 12.5385 20.998 11.277 20.998 9.72068V9.10959C20.998 8.91173 20.9536 8.71877 20.8697 8.53247C20.2931 9.81189 17.8384 10.7731 14.8974 10.7731Z" fill="#F4343D"/>
<path d="M14.8974 14.0888C11.9564 14.0888 9.50177 13.1275 8.92518 11.8481C8.84121 12.0345 8.79688 12.2274 8.79688 12.4252V13.0364C8.79688 14.5926 11.5282 15.8541 14.8974 15.8541C18.2666 15.8541 20.998 14.5926 20.998 13.0364V12.4252C20.998 12.2274 20.9536 12.0344 20.8697 11.8481C20.2931 13.1275 17.8384 14.0888 14.8974 14.0888Z" fill="#F4343D"/>
<path d="M14.8974 17.2347C11.9564 17.2347 9.50177 16.2734 8.92518 14.9941C8.84121 15.1804 8.79688 15.3734 8.79688 15.5711V16.1822C8.79688 17.7385 11.5282 19 14.8974 19C18.2666 19 20.998 17.7385 20.998 16.1822V15.5711C20.998 15.3733 20.9536 15.1803 20.8697 14.994C20.2931 16.2734 17.8384 17.2347 14.8974 17.2347Z" fill="#F4343D"/>
</svg>
