<svg width="15" height="12" viewBox="0 0 15 12" fill="none" xmlns="http://www.w3.org/2000/svg">
<path d="M8.46273 8.84092C8.19575 9.00139 7.85385 9.08979 7.49998 9.08979C7.14612 9.08979 6.80422 9.00143 6.53724 8.84092L2.17857 6.22106C2.17857 6.22106 1.78516 5.98473 1.78516 6.52011C1.78516 7.12808 1.78516 8.95198 1.78516 8.95198C1.78516 8.9763 1.78516 9.09837 1.78516 9.13621C1.78516 10.5143 4.34373 12 7.49987 12C10.656 12 13.2146 10.5144 13.2146 9.13621C13.2146 9.09837 13.2146 8.9763 13.2146 8.95198C13.2146 8.95198 13.2146 7.01746 13.2146 6.37261C13.2146 5.94287 12.9349 6.15286 12.9349 6.15286L8.46273 8.84092Z" fill="#2081F3"/>
<path d="M14.7488 4.1371C15.0837 3.93581 15.0837 3.6064 14.7488 3.40507L8.10892 0.150969C7.77401 -0.0503231 7.22596 -0.0503231 6.89104 0.150969L0.251184 3.40507C-0.0837281 3.60636 -0.0837281 3.93577 0.251184 4.1371L6.89104 8.12813C7.22596 8.32942 7.77401 8.32942 8.10892 8.12813" fill="#2081F3"/>
<path d="M14.4715 10.0527C14.4715 8.95078 14.4715 5.64494 14.4715 5.64494C14.4715 5.64494 14.4747 5.43617 14.3483 5.50511C14.2469 5.56042 13.9983 5.6962 13.9108 5.77085C13.8097 5.85696 13.8324 6.05026 13.8324 6.05026C13.8324 6.05026 13.8324 9.05211 13.8324 10.0527C13.8324 10.1095 13.7826 10.1366 13.7589 10.1504C13.5293 10.2826 13.375 10.5267 13.375 10.8066C13.375 11.2271 13.7228 11.5681 14.152 11.5681C14.5811 11.5681 14.929 11.2271 14.929 10.8066C14.929 10.5256 14.7735 10.2808 14.5425 10.1488C14.5196 10.1357 14.4715 10.1095 14.4715 10.0527Z" fill="#2081F3"/>
</svg>
