<svg width="17" height="19" viewBox="0 0 17 19" fill="none" xmlns="http://www.w3.org/2000/svg">
<path d="M0.337234 17.6723C1.25436 15.7796 2.06879 14.0024 1.96089 13.0557C1.85788 12.1509 2.19954 11.1925 2.70769 10.2485C2.49958 10.1308 2.35857 9.90298 2.35857 9.64118V0.692397C2.35857 0.310005 2.65935 0 3.03046 0H16.3282C16.6992 0 17 0.310005 17 0.692397V9.64131C17 10.0237 16.6992 10.3337 16.3282 10.3337H12.7265C12.7089 10.6107 12.4665 10.9904 11.8792 11.3535C10.838 11.9973 13.6174 14.6172 6.74102 15.2744C6.28073 16.2733 5.45885 18.6374 5.45885 18.6374C5.39633 18.8526 5.20428 19 4.9863 19H0.493254C0.322969 19 0.164814 18.9095 0.0747185 18.7607C-0.0153313 18.6119 -0.02458 18.4258 0.0501995 18.2682C0.13711 18.0852 0.234226 17.8847 0.337234 17.6723ZM15.8914 1.1425H3.46723V2.73312H15.8914V1.1425ZM15.8914 5.09316H3.46723V8.99275C3.65645 8.70437 3.84977 8.42036 4.03864 8.14308C4.36908 7.65796 4.68116 7.19976 4.93678 6.76903C5.00694 6.65079 5.0795 6.51384 5.14974 6.38134C5.30292 6.09206 5.46509 5.79523 5.61439 5.62213C5.70932 5.51211 5.84362 5.44925 5.98864 5.45164C6.13144 5.45334 6.26655 5.51876 6.359 5.63103C6.42864 5.71551 6.49984 5.82522 6.57069 5.957C6.95253 6.66783 6.94211 8.07883 6.36594 9.19121H15.8914V5.09316Z" fill="#F4343D"/>
</svg>
