<svg width="11" height="13" viewBox="0 0 11 13" fill="none" xmlns="http://www.w3.org/2000/svg">
<path d="M8.13832 10.0265H9.92452L7.99308 11.8759V10.157C7.99301 10.085 8.05822 10.0265 8.13832 10.0265ZM7.2835 13H0.354756C0.15886 13 0 12.8573 0 12.6814V0.318627C0 0.142681 0.15886 0 0.354756 0H10.6452C10.8411 0 11 0.142681 11 0.318627V9.38925H8.13832C7.66699 9.38925 7.28357 9.73369 7.28357 10.157V13H7.2835ZM1.68637 1.84804C1.68637 2.02399 1.84523 2.16667 2.04113 2.16667H8.24936C8.44526 2.16667 8.60412 2.02399 8.60412 1.84804C8.60412 1.67209 8.44526 1.52941 8.24936 1.52941H2.04113C1.84523 1.52941 1.68637 1.67209 1.68637 1.84804ZM1.68637 3.79167C1.68637 3.96761 1.84523 4.11029 2.04113 4.11029H8.24936C8.44526 4.11029 8.60412 3.96761 8.60412 3.79167C8.60412 3.61572 8.44526 3.47304 8.24936 3.47304H2.04113C1.84523 3.47304 1.68637 3.61572 1.68637 3.79167ZM1.68637 5.73529C1.68637 5.91124 1.84523 6.05392 2.04113 6.05392H7.14302C7.33891 6.05392 7.49777 5.91124 7.49777 5.73529C7.49777 5.55935 7.33891 5.41667 7.14302 5.41667H2.04113C1.84523 5.41667 1.68637 5.55935 1.68637 5.73529ZM2.04113 7.99755H9.10965C9.30554 7.99755 9.4644 7.85487 9.4644 7.67892C9.4644 7.50298 9.30554 7.36029 9.10965 7.36029H2.04113C1.84523 7.36029 1.68637 7.50298 1.68637 7.67892C1.68637 7.85487 1.84523 7.99755 2.04113 7.99755Z" fill="#2081F3"/>
</svg>
