<svg width="25" height="19" viewBox="0 0 25 19" fill="none" xmlns="http://www.w3.org/2000/svg">
<path d="M21.9481 0H3.05711C1.37078 0 0 1.36895 0 3.05302V15.947C0 17.6311 1.37078 19 3.05711 19H21.9429C23.6292 19 25 17.6311 25 15.947V3.05818C25.0052 1.37412 23.6344 0 21.9481 0ZM23.6085 15.947C23.6085 16.8613 22.8636 17.6052 21.9481 17.6052H3.05711C2.14153 17.6052 1.39665 16.8613 1.39665 15.947V3.05818C1.39665 2.14383 2.14153 1.39995 3.05711 1.39995H21.9429C22.8585 1.39995 23.6033 2.14383 23.6033 3.05818V15.947H23.6085Z" fill="#2081F3"/>
<path d="M15.7674 9.33986L21.8816 3.86406C22.1661 3.60576 22.192 3.16667 21.9334 2.87738C21.6747 2.59326 21.235 2.56743 20.9454 2.82572L12.5137 10.3834L10.8688 8.91626C10.8636 8.91109 10.8585 8.90593 10.8585 8.90076C10.8223 8.8646 10.786 8.83361 10.7447 8.80261L4.0511 2.82055C3.76143 2.56226 3.32174 2.58809 3.0631 2.87738C2.80446 3.16667 2.83033 3.60576 3.12 3.86406L9.30663 9.38635L3.14587 15.1463C2.86654 15.4097 2.85102 15.8488 3.11483 16.133C3.2545 16.2776 3.44071 16.3551 3.62693 16.3551C3.79764 16.3551 3.96834 16.2931 4.10283 16.1691L10.3567 10.3265L12.0534 11.8401C12.1879 11.9589 12.3534 12.0158 12.5189 12.0158C12.6845 12.0158 12.8552 11.9538 12.9845 11.835L14.7277 10.2749L20.9454 16.1743C21.0799 16.3034 21.2557 16.3654 21.4264 16.3654C21.6126 16.3654 21.7937 16.2931 21.9334 16.1485C22.1972 15.8695 22.1868 15.4252 21.9075 15.1618L15.7674 9.33986Z" fill="#2081F3"/>
</svg>
