<svg width="14" height="14" viewBox="0 0 14 14" fill="none" xmlns="http://www.w3.org/2000/svg">
<path d="M2.474 7.41016H0C0.0511559 8.28319 0.281317 9.14017 0.625737 9.89844H2.82473C2.62388 9.10766 2.50484 8.24644 2.474 7.41016Z" fill="#2081F3"/>
<path d="M3.29297 7.41016C3.32526 8.248 3.45426 9.11258 3.66213 9.89844H6.58901V7.41016H3.29297Z" fill="#2081F3"/>
<path d="M0.625737 4.10156C0.281317 4.85983 0.0511559 5.71681 0 6.58984H2.474C2.50484 5.75356 2.62388 4.89234 2.82473 4.10156H0.625737Z" fill="#2081F3"/>
<path d="M10.337 4.10156H7.41016V6.58984H10.7062C10.6739 5.752 10.5449 4.88742 10.337 4.10156Z" fill="#2081F3"/>
<path d="M7.41016 0V3.28125H10.0891C9.49773 1.60623 8.51262 0.262363 7.41016 0Z" fill="#2081F3"/>
<path d="M3.91406 10.7188C4.5054 12.3938 5.49052 13.7376 6.59298 14V10.7188H3.91406Z" fill="#2081F3"/>
<path d="M3.66213 4.10156C3.45426 4.88742 3.32526 5.752 3.29297 6.58984H6.58901V4.10156H3.66213Z" fill="#2081F3"/>
<path d="M3.91406 3.28125H6.59298V0C5.49052 0.262363 4.5054 1.60623 3.91406 3.28125Z" fill="#2081F3"/>
<path d="M1.07031 3.28125H3.0716C3.4549 2.13965 4.00077 1.08394 4.65497 0.353119C3.16008 0.882849 1.90062 1.95787 1.07031 3.28125Z" fill="#2081F3"/>
<path d="M9.34375 0.353119C9.99792 1.08394 10.5438 2.13965 10.9271 3.28125H12.9284C12.0981 1.95787 10.8386 0.882849 9.34375 0.353119Z" fill="#2081F3"/>
<path d="M7.41016 10.7188V14C8.51262 13.7376 9.49773 12.3938 10.0891 10.7188H7.41016Z" fill="#2081F3"/>
<path d="M10.9271 10.7188C10.5438 11.8604 9.99795 12.9161 9.34375 13.6469C10.8386 13.1172 12.0981 12.0421 12.9284 10.7188H10.9271Z" fill="#2081F3"/>
<path d="M3.0716 10.7188H1.07031C1.90062 12.0421 3.16008 13.1172 4.65497 13.6469C4.0008 12.9161 3.4549 11.8604 3.0716 10.7188Z" fill="#2081F3"/>
<path d="M7.41016 7.41016V9.89844H10.337C10.5449 9.11258 10.6739 8.248 10.7062 7.41016H7.41016Z" fill="#2081F3"/>
<path d="M11.5265 7.41016C11.4957 8.24644 11.3766 9.10766 11.1758 9.89844H13.3748C13.7192 9.14017 13.9494 8.28319 14.0005 7.41016H11.5265Z" fill="#2081F3"/>
<path d="M13.3748 4.10156H11.1758C11.3766 4.89234 11.4957 5.75356 11.5265 6.58984H14.0005C13.9494 5.71681 13.7192 4.85983 13.3748 4.10156Z" fill="#2081F3"/>
</svg>
