<svg width="12" height="12" viewBox="0 0 12 12" fill="none" xmlns="http://www.w3.org/2000/svg">
<path d="M11.0674 5.43704L8.81474 7.68898C7.57144 8.93301 5.55449 8.93301 4.31098 7.68898C4.1151 7.49366 3.96187 7.27357 3.8273 7.04661L4.874 6C4.92375 5.94983 4.98519 5.92108 5.0439 5.88721C5.11627 6.13444 5.24259 6.36849 5.43702 6.56294C6.05793 7.18435 7.06829 7.18349 7.68883 6.56294L9.94081 4.31106C10.5622 3.68972 10.5622 2.67961 9.94081 2.05875C9.32023 1.43789 8.31014 1.43789 7.68883 2.05875L6.88803 2.86041C6.23818 2.60738 5.53805 2.53935 4.85648 2.63923L6.56293 0.932846C7.80696 -0.310949 9.82339 -0.310949 11.0674 0.932846C12.3109 2.17659 12.3109 4.19332 11.0674 5.43704ZM5.11233 9.13999L4.31095 9.94165C3.69009 10.5622 2.67968 10.5622 2.05871 9.94165C1.4378 9.32024 1.4378 8.31013 2.05871 7.68898L4.31095 5.43704C4.93231 4.81576 5.94204 4.81576 6.5629 5.43704C6.75688 5.63107 6.88333 5.86507 6.95638 6.11199C7.01543 6.07767 7.07611 6.04979 7.12584 5.99998L8.17245 4.95379C8.03876 4.72593 7.88473 4.50664 7.68878 4.31111C6.44558 3.06731 4.42845 3.06731 3.18465 4.31111L0.932752 6.56307C-0.310917 7.80724 -0.310917 9.82339 0.932752 11.0674C2.17655 12.3109 4.19322 12.3109 5.43699 11.0674L7.14388 9.3607C6.46194 9.46116 5.76163 9.39255 5.11233 9.13999Z" fill="#2081F3"/>
</svg>
