<svg width="15" height="13" viewBox="0 0 15 13" fill="none" xmlns="http://www.w3.org/2000/svg">
<path d="M2.03914 12.672C2.03914 12.672 2.02581 13 2.35335 13C2.76083 13 6.13444 12.9957 6.13444 12.9957L6.13999 9.96504C6.13999 9.96504 6.08669 9.46545 6.58244 9.46545H8.15128C8.73751 9.46545 8.70142 9.96504 8.70142 9.96504L8.69476 12.9859C8.69476 12.9859 11.8935 12.9859 12.3959 12.9859C12.8117 12.9859 12.7928 12.5775 12.7928 12.5775V6.99035L7.5767 2.45175L2.03914 6.99035V12.672Z" fill="#030104"/>
<path d="M2.03914 12.672C2.03914 12.672 2.02581 13 2.35335 13C2.76083 13 6.13444 12.9957 6.13444 12.9957L6.13999 9.96504C6.13999 9.96504 6.08669 9.46545 6.58244 9.46545H8.15128C8.73751 9.46545 8.70142 9.96504 8.70142 9.96504L8.69476 12.9859C8.69476 12.9859 11.8935 12.9859 12.3959 12.9859C12.8117 12.9859 12.7928 12.5775 12.7928 12.5775V6.99035L7.5767 2.45175L2.03914 6.99035V12.672Z" fill="#2081F3"/>
<path d="M0 6.56788C0 6.56788 0.470207 7.41554 1.49556 6.56788L7.62324 1.49712L13.3684 6.53638C14.5553 7.37373 15 6.53638 15 6.53638L7.62324 0L0 6.56788Z" fill="#030104"/>
<path d="M0 6.56788C0 6.56788 0.470207 7.41554 1.49556 6.56788L7.62324 1.49712L13.3684 6.53638C14.5553 7.37373 15 6.53638 15 6.53638L7.62324 0L0 6.56788Z" fill="#2081F3"/>
<path d="M13.2278 1.48517H11.75L11.7561 3.23805L13.2278 4.45931V1.48517Z" fill="#030104"/>
<path d="M13.2278 1.48517H11.75L11.7561 3.23805L13.2278 4.45931V1.48517Z" fill="#2081F3"/>
</svg>
