<svg width="15" height="15" viewBox="0 0 15 15" fill="none" xmlns="http://www.w3.org/2000/svg">
<path d="M7.5 0C3.36462 0 0 3.36438 0 7.5C0 11.6356 3.36462 15 7.5 15C11.6354 15 15 11.6356 15 7.5C15 3.36438 11.6354 0 7.5 0ZM7.5 14.0769C3.87346 14.0769 0.923077 11.1265 0.923077 7.5C0.923077 3.87346 3.87346 0.923077 7.5 0.923077C11.1265 0.923077 14.0769 3.87346 14.0769 7.5C14.0769 11.1265 11.1265 14.0769 7.5 14.0769Z" fill="black"/>
<path d="M7.61958 5.2814C8.0459 5.2814 8.3915 4.93579 8.3915 4.50947C8.3915 4.08315 8.0459 3.73755 7.61958 3.73755C7.19326 3.73755 6.84766 4.08315 6.84766 4.50947C6.84766 4.93579 7.19326 5.2814 7.61958 5.2814Z" fill="black"/>
<path d="M7.41857 6.54047C7.1638 6.54047 6.95703 6.74724 6.95703 7.002V10.9251C6.95703 11.1799 7.1638 11.3866 7.41857 11.3866C7.67334 11.3866 7.88011 11.1799 7.88011 10.9251V7.002C7.88011 6.747 7.67334 6.54047 7.41857 6.54047Z" fill="black"/>
</svg>
