<svg width="35" height="35" viewBox="0 0 35 35" fill="none" xmlns="http://www.w3.org/2000/svg">
<rect x="0.5" y="0.5" width="34" height="34" rx="1.5" stroke="url(#paint0_linear)"/>
<path d="M11.6681 9.65515H23.3303C24.4378 9.65515 25.344 10.4751 25.344 11.6688V23.3311C25.344 24.5248 24.4378 25.3448 23.3303 25.3448H11.6681C10.5603 25.3448 9.6543 24.5248 9.6543 23.3311V11.6688C9.6543 10.4751 10.5603 9.65515 11.6681 9.65515ZM21.0836 11.3983C20.6951 11.3983 20.3776 11.716 20.3776 12.1047V13.7954C20.3776 14.184 20.6951 14.5018 21.0836 14.5018H22.857C23.2455 14.5018 23.5634 14.184 23.5634 13.7954V12.1047C23.5634 11.716 23.2455 11.3983 22.857 11.3983H21.0836ZM23.5708 16.2903H22.1899C22.3205 16.7168 22.3912 17.1687 22.3912 17.6362C22.3912 20.2459 20.2074 22.3614 17.5141 22.3614C14.8209 22.3614 12.6374 20.2459 12.6374 17.6362C12.6374 17.1684 12.708 16.7167 12.8388 16.2903H11.3978V22.9178C11.3978 23.2607 11.6785 23.5415 12.0216 23.5415H22.9473C23.2905 23.5415 23.5711 23.2609 23.5711 22.9178V16.2903H23.5708ZM17.5139 14.4127C15.7738 14.4127 14.3629 15.7796 14.3629 17.4659C14.3629 19.1522 15.7738 20.5191 17.5139 20.5191C19.2543 20.5191 20.6653 19.1522 20.6653 17.4659C20.6653 15.7796 19.2544 14.4127 17.5139 14.4127Z" fill="url(#paint1_linear)"/>
<defs>
<linearGradient id="paint0_linear" x1="32.002" y1="-0.346106" x2="4.11734" y2="34.2308" gradientUnits="userSpaceOnUse">
<stop stop-color="#774AC8"/>
<stop offset="0.314917" stop-color="#C4318A"/>
<stop offset="0.740331" stop-color="#F97C2B"/>
<stop offset="1" stop-color="#FECD6B"/>
</linearGradient>
<linearGradient id="paint1_linear" x1="24" y1="9.5" x2="11.5" y2="25" gradientUnits="userSpaceOnUse">
<stop stop-color="#774AC8"/>
<stop offset="0.314917" stop-color="#C4318A"/>
<stop offset="0.740331" stop-color="#F97C2B"/>
<stop offset="1" stop-color="#FECD6B"/>
</linearGradient>
</defs>
</svg>
