<svg width="35" height="35" viewBox="0 0 35 35" fill="#8B8B8B" xmlns="http://www.w3.org/2000/svg">
<path d="M11.6691 9.65517H23.3312C24.4388 9.65517 25.3449 10.4751 25.3449 11.6688V23.3312C25.3449 24.5249 24.4388 25.3448 23.3312 25.3448H11.6691C10.5613 25.3448 9.65527 24.5249 9.65527 23.3312V11.6688C9.65527 10.4751 10.5613 9.65517 11.6691 9.65517ZM21.0846 11.3984C20.6961 11.3984 20.3785 11.716 20.3785 12.1048V13.7954C20.3785 14.184 20.6961 14.5018 21.0846 14.5018H22.8579C23.2465 14.5018 23.5644 14.184 23.5644 13.7954V12.1048C23.5644 11.716 23.2465 11.3984 22.8579 11.3984H21.0846ZM23.5718 16.2903H22.1909C22.3215 16.7168 22.3922 17.1687 22.3922 17.6362C22.3922 20.2459 20.2084 22.3614 17.5151 22.3614C14.8219 22.3614 12.6384 20.2459 12.6384 17.6362C12.6384 17.1684 12.709 16.7167 12.8398 16.2903H11.3988V22.9178C11.3988 23.2608 11.6794 23.5416 12.0226 23.5416H22.9483C23.2915 23.5416 23.5721 23.2609 23.5721 22.9178V16.2903H23.5718ZM17.5149 14.4127C15.7748 14.4127 14.3639 15.7796 14.3639 17.4659C14.3639 19.1523 15.7748 20.5191 17.5149 20.5191C19.2552 20.5191 20.6663 19.1523 20.6663 17.4659C20.6663 15.7796 19.2554 14.4127 17.5149 14.4127Z"/>
</svg>
