<svg width="15" height="21" viewBox="0 0 15 21" fill="none" xmlns="http://www.w3.org/2000/svg">
<path d="M7.5 0C3.36448 0 0 3.41177 0 7.60537C0 12.8098 6.71176 20.4501 6.99752 20.7728C7.26593 21.076 7.73455 21.0755 8.00248 20.7728C8.28823 20.4501 15 12.8098 15 7.60537C14.9999 3.41177 11.6355 0 7.5 0ZM7.5 19.2663C5.24115 16.5454 1.35061 11.1773 1.35061 7.60545C1.35061 4.16695 4.10919 1.3696 7.5 1.3696C10.8908 1.3696 13.6494 4.16695 13.6494 7.60541C13.6493 11.1774 9.75942 16.5445 7.5 19.2663Z" fill="#2081F3"/>
<path d="M7.49996 3.77893C5.41928 3.77893 3.72656 5.49548 3.72656 7.60541C3.72656 9.71533 5.41932 11.4319 7.49996 11.4319C9.58061 11.4319 11.2733 9.71533 11.2733 7.60541C11.2733 5.49548 9.58061 3.77893 7.49996 3.77893ZM7.49996 10.0623C6.16399 10.0623 5.07718 8.96015 5.07718 7.60541C5.07718 6.25066 6.16403 5.14853 7.49996 5.14853C8.83589 5.14853 9.92275 6.25066 9.92275 7.60541C9.92275 8.96015 8.83589 10.0623 7.49996 10.0623Z" fill="#2081F3"/>
</svg>
