<svg width="17" height="20" viewBox="0 0 17 20" fill="none" xmlns="http://www.w3.org/2000/svg">
<path d="M7.108 13.2855C7.18454 13.2037 7.28138 13.1425 7.38145 13.0916C7.59933 12.9807 7.83762 12.9134 8.07422 12.8527V14.6418C7.69019 14.5994 7.24931 14.4634 7.04767 14.1136C6.95141 13.9465 6.93227 13.7411 6.97147 13.5551C6.99274 13.4543 7.03668 13.3618 7.108 13.2855Z" fill="#F4343D"/>
<path d="M7.04688 14.1176C7.04599 14.1161 7.04549 14.1152 7.04455 14.1136C7.04533 14.1149 7.0461 14.1162 7.04688 14.1176Z" fill="#F4343D"/>
<path d="M9.87616 10.4255C9.94218 10.5195 9.98361 10.6264 9.99504 10.74C10.0065 10.8539 10.0001 10.9805 9.95573 11.0877C9.91353 11.1898 9.82513 11.2652 9.73389 11.3259C9.63151 11.3938 9.5189 11.4469 9.40421 11.4919C9.308 11.5297 9.19978 11.5659 9.08312 11.6008V9.98187C9.37783 10.0432 9.69984 10.1743 9.87616 10.4255Z" fill="#F4343D"/>
<path d="M7.03495 14.1003C7.03751 14.1047 7.04026 14.1093 7.04297 14.1142C7.0398 14.1085 7.0373 14.1044 7.03495 14.1003Z" fill="#F4343D"/>
<path d="M7.42634 4.35167C5.86723 3.07359 4.82545 0.194259 5.46657 0.0683239C6.31844 -0.0990719 8.16831 0.634938 9.06242 0.764261C10.3306 0.91368 11.7118 -0.577682 12.4871 0.253603C13.1174 0.929492 12.0351 3.38749 10.3419 4.45831C15.3937 6.8812 22.4943 19.0443 10.1069 19.9268C-7.03333 21.148 1.54938 6.71272 7.42634 4.35167ZM5.95433 13.9441C6.00704 14.4182 6.26457 14.8471 6.64951 15.1382C7.05597 15.4456 7.56577 15.5886 8.07229 15.6286V16.1525C8.07229 16.2927 8.13503 16.4283 8.24258 16.5211C8.39039 16.6487 8.6076 16.6802 8.787 16.5996C8.96414 16.52 9.08051 16.3428 9.08051 16.1525V15.5799C9.16737 15.5638 9.25359 15.5447 9.33881 15.5218C9.8122 15.3949 10.2513 15.1475 10.5721 14.7815C10.7318 14.599 10.8621 14.392 10.9522 14.1685C10.9757 14.1101 10.9967 14.0506 11.0151 13.9905C11.0317 13.936 11.0489 13.8807 11.0548 13.8239C11.0648 13.7287 11.0454 13.6316 11 13.5468C10.9065 13.3723 10.7095 13.2669 10.5084 13.2845C10.3105 13.3016 10.1371 13.4356 10.0747 13.6197C10.0556 13.6764 10.0425 13.7345 10.021 13.7906C9.99961 13.8464 9.97381 13.9005 9.94347 13.9521C9.88357 14.0537 9.80854 14.1473 9.72211 14.2286C9.54396 14.3961 9.31706 14.5049 9.08051 14.5697V12.6232C9.54305 12.5063 10.0205 12.3554 10.4024 12.0656C10.5881 11.9247 10.7456 11.7496 10.8487 11.5424C10.9576 11.3237 11.0027 11.0801 11.0045 10.8381C11.0064 10.5924 10.9585 10.3488 10.8535 10.125C10.7551 9.91536 10.6135 9.72716 10.4398 9.57116C10.0685 9.23763 9.57522 9.0516 9.08046 8.98327V8.94044V8.43939C9.08046 8.29924 9.01772 8.16361 8.91017 8.0708C8.76231 7.94322 8.5452 7.91169 8.36575 7.99235C8.18866 8.07193 8.07224 8.24917 8.07224 8.43939V8.94044V8.9803C8.00631 8.9884 7.94058 8.99809 7.87519 9.00967C7.38935 9.09546 6.91418 9.29124 6.5589 9.63304C6.39058 9.79493 6.2528 9.98783 6.15592 10.1982C6.12886 10.2569 6.10518 10.3169 6.08469 10.3782C6.06559 10.4352 6.04639 10.494 6.03728 10.5536C6.02271 10.6487 6.03757 10.747 6.07928 10.834C6.16474 11.0123 6.35639 11.1258 6.55803 11.1173C6.75614 11.1089 6.93564 10.983 7.00658 10.8023C7.0277 10.7486 7.03827 10.6917 7.05982 10.6381C7.08157 10.5838 7.10974 10.532 7.14219 10.4831C7.20527 10.3881 7.28702 10.3066 7.38034 10.2394C7.5824 10.0938 7.82749 10.018 8.07238 9.97555V11.8383C7.78134 11.9063 7.49005 11.9805 7.21121 12.0878C6.78975 12.25 6.39039 12.4986 6.16035 12.8907C6.19604 12.8297 6.23076 12.7701 6.15915 12.8928C6.08883 13.0132 6.1224 12.9558 6.1577 12.8954C5.97468 13.2102 5.91454 13.5865 5.95433 13.9441Z" fill="#F4343D"/>
<path d="M7.05063 14.1262C7.05374 14.1316 7.05645 14.1363 7.05859 14.14C7.05676 14.1368 7.054 14.1322 7.05063 14.1262Z" fill="#F4343D"/>
</svg>
