<svg width="22" height="20" viewBox="0 0 22 20" fill="none" xmlns="http://www.w3.org/2000/svg">
<path d="M8.51122 15.8976H3.48407C3.20917 15.8976 2.98633 16.1272 2.98633 16.4104C2.98633 16.6936 3.20917 16.9232 3.48407 16.9232H8.51122C8.78612 16.9232 9.00895 16.6936 9.00895 16.4104C9.00895 16.1272 8.78612 15.8976 8.51122 15.8976Z" fill="black"/>
<path d="M16.0268 15.8976H10.9997C10.7248 15.8976 10.502 16.1272 10.502 16.4104C10.502 16.6936 10.7248 16.9232 10.9997 16.9232H16.0268C16.3017 16.9232 16.5246 16.6936 16.5246 16.4104C16.5246 16.1272 16.3017 15.8976 16.0268 15.8976Z" fill="black"/>
<path d="M16.0271 3.0769H3.48407C3.20917 3.0769 2.98633 3.30649 2.98633 3.58972C2.98633 3.87296 3.20917 4.10255 3.48407 4.10255H16.0271C16.3019 4.10255 16.5248 3.87296 16.5248 3.58972C16.5248 3.30649 16.3019 3.0769 16.0271 3.0769Z" fill="black"/>
<path d="M16.0268 5.64111H10.9997C10.7248 5.64111 10.502 5.8707 10.502 6.15393C10.502 6.43716 10.7248 6.66675 10.9997 6.66675H16.0268C16.3017 6.66675 16.5246 6.43716 16.5246 6.15393C16.5246 5.8707 16.3017 5.64111 16.0268 5.64111Z" fill="black"/>
<path d="M16.0268 8.20532H10.9997C10.7248 8.20532 10.502 8.43491 10.502 8.71814C10.502 9.00137 10.7248 9.23096 10.9997 9.23096H16.0268C16.3017 9.23096 16.5246 9.00137 16.5246 8.71814C16.5246 8.43491 16.3017 8.20532 16.0268 8.20532Z" fill="black"/>
<path d="M16.0268 10.7692H10.9997C10.7248 10.7692 10.502 10.9988 10.502 11.282C10.502 11.5652 10.7248 11.7948 10.9997 11.7948H16.0268C16.3017 11.7948 16.5246 11.5652 16.5246 11.282C16.5246 10.9988 16.3017 10.7692 16.0268 10.7692Z" fill="black"/>
<path d="M16.0268 13.3333H10.9997C10.7248 13.3333 10.502 13.5628 10.502 13.8461C10.502 14.1293 10.7248 14.3589 10.9997 14.3589H16.0268C16.3017 14.3589 16.5246 14.1293 16.5246 13.8461C16.5246 13.5628 16.3017 13.3333 16.0268 13.3333Z" fill="black"/>
<path d="M8.51122 13.3333H3.48407C3.20917 13.3333 2.98633 13.5628 2.98633 13.8461C2.98633 14.1293 3.20917 14.3589 3.48407 14.3589H8.51122C8.78612 14.3589 9.00895 14.1293 9.00895 13.8461C9.00895 13.5628 8.78612 13.3333 8.51122 13.3333Z" fill="black"/>
<path d="M8.51122 5.64111H3.48407C3.20917 5.64111 2.98633 5.8707 2.98633 6.15393V11.3334C2.98633 11.6167 3.20917 11.8462 3.48407 11.8462H8.51122C8.78612 11.8462 9.00895 11.6167 9.00895 11.3334V6.15393C9.00895 5.8707 8.78612 5.64111 8.51122 5.64111ZM8.01348 10.8206H3.9818V6.66675H8.01348V10.8206Z" fill="black"/>
<path d="M21.0045 2.5641H19.5113V1.02564C19.5113 0.460103 19.0647 0 18.5158 0H0.995475C0.44657 0 0 0.460103 0 1.02564V17.4359C0 18.8497 1.11643 20 2.48869 20H19.5113C20.8836 20 22 18.8497 22 17.4359V3.58974C22 3.02421 21.5534 2.5641 21.0045 2.5641ZM21.0045 17.4359C21.0045 18.2842 20.3347 18.9744 19.5113 18.9744H2.48869C1.66533 18.9744 0.995475 18.2842 0.995475 17.4359V1.02564H18.5158V16.6667C18.5158 17.3736 19.0741 17.9487 19.7602 17.9487C20.035 17.9487 20.2579 17.7191 20.2579 17.4359C20.2579 17.1527 20.035 16.9231 19.7602 16.9231C19.623 16.9231 19.5113 16.8081 19.5113 16.6667V3.58974H21.0045V17.4359Z" fill="black"/>
</svg>
