<svg width="12" height="12" viewBox="0 0 12 12" fill="none" xmlns="http://www.w3.org/2000/svg">
<path d="M4.09719 5.43668C4.36228 5.43668 4.57719 5.22178 4.57719 4.95668C4.57719 4.69159 4.36228 4.47668 4.09719 4.47668C3.83209 4.47668 3.61719 4.69159 3.61719 4.95668C3.61719 5.22178 3.83209 5.43668 4.09719 5.43668Z" fill="#9F9F9F"/>
<path d="M7.14797 7.38493C7.41307 7.38493 7.62797 7.17002 7.62797 6.90493C7.62797 6.63983 7.41307 6.42493 7.14797 6.42493C6.88287 6.42493 6.66797 6.63983 6.66797 6.90493C6.66797 7.17002 6.88287 7.38493 7.14797 7.38493Z" fill="#9F9F9F"/>
<path d="M11.1069 6.5661L10.9328 6.32845C10.7446 6.06963 10.7398 5.71904 10.9257 5.45551L11.0951 5.21551C11.354 4.84845 11.234 4.33786 10.8363 4.12375L10.5775 3.98492C10.2951 3.83433 10.1398 3.51904 10.194 3.20139L10.2434 2.91198C10.3187 2.46963 9.98691 2.06022 9.5375 2.04139L9.24338 2.02963C8.92338 2.01551 8.64573 1.79904 8.55632 1.4908L8.47397 1.20845C8.34926 0.77551 7.87397 0.551981 7.45985 0.730804L7.18926 0.846098C6.89514 0.973157 6.55161 0.897863 6.3375 0.657863L6.1422 0.439039C5.84338 0.104922 5.31867 0.107275 5.0222 0.448451L4.82926 0.669628C4.6175 0.911981 4.27632 0.991981 3.97985 0.869628L3.70691 0.756686C3.29044 0.584922 2.81985 0.817863 2.69985 1.2508L2.6222 1.53551C2.5375 1.8461 2.26455 2.06727 1.94455 2.08375L1.65044 2.10022C1.20102 2.1261 0.876319 2.54022 0.958672 2.98257L1.01279 3.27198C1.07161 3.58727 0.921025 3.90492 0.641025 4.06022L0.384554 4.20375C-0.00838704 4.42257 -0.121328 4.93551 0.144554 5.29786L0.318672 5.53551C0.506907 5.79433 0.511613 6.14492 0.325731 6.40845L0.156319 6.64845C-0.102505 7.01551 0.0174953 7.5261 0.415142 7.74022L0.673966 7.87904C0.956319 8.02963 1.11161 8.34492 1.0575 8.66257L1.00808 8.95198C0.932789 9.39433 1.26455 9.80375 1.71397 9.82257L2.00808 9.83433C2.32808 9.84845 2.60573 10.0649 2.69514 10.3732L2.7775 10.6555C2.9022 11.0885 3.3775 11.312 3.79161 11.1332L4.0622 11.0179C4.35632 10.8908 4.69985 10.9661 4.91397 11.2061L5.10926 11.4249C5.41044 11.759 5.93514 11.7567 6.22926 11.4155L6.4222 11.1943C6.63397 10.952 6.97514 10.872 7.27161 10.9943L7.54455 11.1073C7.96102 11.279 8.43161 11.0461 8.55161 10.6132L8.62926 10.3285C8.71397 10.0179 8.98691 9.79669 9.30691 9.78022L9.60103 9.76375C10.0504 9.73786 10.3751 9.32375 10.2928 8.88139L10.2387 8.59198C10.1798 8.27669 10.3304 7.95904 10.6104 7.80374L10.8669 7.66022C11.2598 7.44375 11.3728 6.9308 11.1069 6.5661ZM2.93985 4.95669C2.93985 4.31669 3.4575 3.79904 4.0975 3.79904C4.7375 3.79904 5.25514 4.31669 5.25514 4.95669C5.25514 5.59669 4.7375 6.11433 4.0975 6.11433C3.4575 6.11433 2.93985 5.59433 2.93985 4.95669ZM4.32102 7.94257C4.2222 8.06257 4.04338 8.07904 3.92338 7.98022C3.80338 7.88139 3.78691 7.70257 3.88573 7.58257L6.92338 3.92375C7.0222 3.80375 7.20103 3.78727 7.32102 3.8861C7.44102 3.98492 7.4575 4.16375 7.35867 4.28375L4.32102 7.94257ZM7.14926 8.06257C6.50926 8.06257 5.99161 7.54492 5.99161 6.90492C5.99161 6.26492 6.50926 5.74727 7.14926 5.74727C7.78926 5.74727 8.30691 6.26492 8.30691 6.90492C8.30691 7.54492 7.78926 8.06257 7.14926 8.06257Z" fill="#9F9F9F"/>
</svg>
