<svg width="23" height="23" viewBox="0 0 23 23" fill="none" xmlns="http://www.w3.org/2000/svg">
<path d="M18.1854 14.2477C17.7139 13.7574 17.1452 13.4952 16.5424 13.4952C15.9445 13.4952 15.3709 13.7525 14.88 14.2428L13.3439 15.7719C13.2175 15.7039 13.0911 15.6408 12.9696 15.5777C12.7946 15.4904 12.6293 15.4078 12.4884 15.3205C11.0495 14.4078 9.74192 13.2185 8.48779 11.6797C7.88017 10.9127 7.47185 10.2671 7.17534 9.61178C7.57393 9.24771 7.94337 8.86907 8.30308 8.505C8.43919 8.36908 8.57529 8.2283 8.7114 8.09238C9.7322 7.07297 9.7322 5.7526 8.7114 4.7332L7.38436 3.40797C7.23367 3.25748 7.07812 3.10215 6.93229 2.94681C6.64063 2.64584 6.33439 2.33517 6.01843 2.04391C5.54691 1.57789 4.98304 1.33032 4.39001 1.33032C3.79697 1.33032 3.22338 1.57789 2.73728 2.04391C2.73242 2.04876 2.73242 2.04876 2.72756 2.05361L1.07483 3.71864C0.452628 4.34 0.0977775 5.09727 0.0200021 5.9759C-0.0966609 7.39336 0.321382 8.71373 0.642205 9.5778C1.42968 11.6991 2.60603 13.6651 4.36084 15.7719C6.48994 18.3107 9.05167 20.3155 11.978 21.7281C13.096 22.2573 14.5883 22.8835 16.2556 22.9903C16.3577 22.9951 16.4646 23 16.5618 23C17.6847 23 18.6278 22.5971 19.3666 21.7961C19.3715 21.7864 19.3812 21.7815 19.3861 21.7718C19.6388 21.466 19.9305 21.1893 20.2367 20.8932C20.4458 20.6942 20.6596 20.4854 20.8687 20.267C21.3499 19.767 21.6027 19.1845 21.6027 18.5874C21.6027 17.9855 21.345 17.4078 20.8541 16.9224L18.1854 14.2477ZM19.9256 19.3592C19.9208 19.3592 19.9208 19.3641 19.9256 19.3592C19.7361 19.5631 19.5416 19.7476 19.3326 19.9515C19.0166 20.2524 18.6958 20.568 18.3944 20.9223C17.9035 21.4466 17.325 21.6942 16.5667 21.6942C16.4938 21.6942 16.416 21.6942 16.3431 21.6893C14.8994 21.5971 13.5578 21.034 12.5516 20.5534C9.80025 19.2233 7.38436 17.335 5.37678 14.9418C3.71919 12.9467 2.61089 11.1021 1.87689 9.1215C1.42482 7.91277 1.25955 6.97103 1.33246 6.0827C1.38107 5.51474 1.59981 5.04387 2.00327 4.64096L3.66086 2.98564C3.89905 2.76234 4.15182 2.64099 4.39973 2.64099C4.70597 2.64099 4.95388 2.82545 5.10943 2.98079C5.11429 2.98564 5.11915 2.9905 5.12401 2.99535C5.42053 3.27205 5.70246 3.55845 5.99898 3.86427C6.14967 4.01961 6.30522 4.17495 6.46077 4.33514L7.78782 5.66037C8.30308 6.17493 8.30308 6.65065 7.78782 7.16521C7.64685 7.30598 7.51074 7.44676 7.36977 7.58268C6.96145 8.00015 6.57258 8.38849 6.14967 8.76713C6.13995 8.77684 6.13023 8.78169 6.12537 8.7914C5.70733 9.20887 5.7851 9.61663 5.8726 9.89333C5.87746 9.90789 5.88232 9.92246 5.88718 9.93702C6.23231 10.772 6.71841 11.5584 7.45727 12.4952L7.46213 12.5001C8.80376 14.1506 10.2183 15.437 11.7787 16.4224C11.978 16.5486 12.1821 16.6505 12.3766 16.7476C12.5516 16.835 12.7168 16.9175 12.8578 17.0049C12.8772 17.0146 12.8967 17.0292 12.9161 17.0389C13.0814 17.1214 13.237 17.1602 13.3974 17.1602C13.8008 17.1602 14.0536 16.9078 14.1362 16.8253L15.7987 15.1651C15.964 15.0001 16.2264 14.801 16.5327 14.801C16.8341 14.801 17.082 14.9904 17.2327 15.1554C17.2375 15.1603 17.2375 15.1603 17.2424 15.1651L19.9208 17.8398C20.4215 18.335 20.4215 18.8447 19.9256 19.3592Z" fill="#2081F3"/>
<path d="M12.4269 5.4711C13.7005 5.68469 14.8574 6.28663 15.7809 7.20895C16.7045 8.13127 17.3024 9.28659 17.5212 10.5584C17.5746 10.8788 17.8517 11.1021 18.1677 11.1021C18.2066 11.1021 18.2406 11.0973 18.2795 11.0924C18.6392 11.0341 18.8774 10.6943 18.819 10.3351C18.5566 8.79631 17.8274 7.39341 16.7142 6.28177C15.6011 5.17014 14.1963 4.44199 12.6553 4.17986C12.2956 4.1216 11.9602 4.35946 11.897 4.71383C11.8338 5.06819 12.0672 5.41285 12.4269 5.4711Z" fill="#2081F3"/>
<path d="M22.99 10.1458C22.5574 7.61185 21.3616 5.30605 19.5242 3.47112C17.6867 1.63619 15.3778 0.442025 12.8404 0.0099909C12.4855 -0.0531152 12.1501 0.1896 12.0869 0.543965C12.0286 0.903185 12.2668 1.23813 12.6265 1.30124C14.8917 1.68473 16.9576 2.75753 18.6006 4.39344C20.2436 6.03419 21.313 8.09728 21.697 10.3594C21.7505 10.6798 22.0276 10.9031 22.3435 10.9031C22.3824 10.9031 22.4164 10.8982 22.4553 10.8934C22.8102 10.84 23.0532 10.5002 22.99 10.1458Z" fill="#2081F3"/>
</svg>
