<svg width="25" height="24" viewBox="0 0 25 24" fill="none" xmlns="http://www.w3.org/2000/svg">
<path d="M24.7498 0H0V24H24.7498V0Z" fill="#61A8DE"/>
<path d="M19.4915 5.29782L2.94105 11.552C2.40498 11.7546 2.43745 12.5005 2.98927 12.6585L7.19493 13.8628L8.76448 18.6923C8.92843 19.1968 9.58767 19.3497 9.96929 18.9718L12.1437 16.8189L16.4101 19.8557C16.9323 20.2273 17.6758 19.9512 17.8084 19.3365L20.6341 6.23611C20.7725 5.59442 20.1214 5.05979 19.4915 5.29782ZM17.4165 8.20512L9.72893 14.7973C9.6523 14.863 9.60353 14.954 9.59213 15.0526L9.29615 17.604C9.28648 17.6872 9.16641 17.6982 9.14077 17.6182L7.92303 13.8132C7.86726 13.639 7.93997 13.4503 8.0998 13.3542L17.1781 7.8943C17.3868 7.76865 17.6006 8.04734 17.4165 8.20512Z" fill="white"/>
</svg>
