<svg width="35" height="35" viewBox="0 0 35 35" fill="#8B8B8B" xmlns="http://www.w3.org/2000/svg">
<path d="M27.736 11.524C27.7083 11.4915 27.6627 11.4804 27.6237 11.4982C27.0464 11.7536 26.439 11.9373 25.8135 12.0458C26.4776 11.5475 26.9724 10.8574 27.2262 10.0661C27.2384 10.0282 27.2258 9.9868 27.1947 9.96214C27.1635 9.93748 27.1202 9.93432 27.0859 9.95464C26.338 10.3971 25.5279 10.709 24.677 10.8821C23.9231 10.1016 22.8703 9.65517 21.7808 9.65517C19.5649 9.65517 17.7624 11.4532 17.7624 13.6633C17.7624 13.9306 17.7883 14.1954 17.8397 14.4524C14.7706 14.2634 11.9009 12.7937 9.94962 10.4064C9.92965 10.382 9.89939 10.3683 9.86774 10.3715C9.8363 10.3739 9.80821 10.3916 9.79239 10.4186C9.43639 11.0278 9.24831 11.7248 9.24831 12.4339C9.24831 13.6627 9.80802 14.8117 10.7611 15.5698C10.2704 15.511 9.7912 15.357 9.35906 15.1177C9.32999 15.1013 9.2938 15.1015 9.26472 15.1182C9.23565 15.1348 9.21726 15.1656 9.21647 15.1991L9.21607 15.2504C9.21607 17.0153 10.382 18.5649 12.0407 19.0794C11.6038 19.1497 11.1505 19.1449 10.7049 19.0601C10.6721 19.054 10.6377 19.0652 10.6151 19.0905C10.5928 19.1157 10.5853 19.151 10.5956 19.183C11.093 20.7316 12.475 21.8177 14.0837 21.953C12.7418 22.9337 11.1557 23.4504 9.47971 23.4504C9.17098 23.4504 8.86007 23.432 8.5555 23.3963C8.51199 23.3914 8.46887 23.4172 8.45384 23.4588C8.43881 23.5009 8.45483 23.5478 8.49241 23.5717C10.306 24.7319 12.403 25.3448 14.557 25.3448C21.6028 25.3448 25.8131 19.6359 25.8131 14.1169C25.8131 13.9632 25.8101 13.8103 25.804 13.6578C26.564 13.1032 27.2165 12.4244 27.7426 11.6386C27.7661 11.6035 27.7635 11.5568 27.736 11.524Z" />
</svg>
