<svg width="35" height="35" viewBox="0 0 35 35" fill="none" xmlns="http://www.w3.org/2000/svg">
<rect x="0.5" y="0.5" width="34" height="34" rx="1.5" stroke="#41ABE1"/>
<path d="M27.737 11.524C27.7093 11.4914 27.6636 11.4804 27.6247 11.4981C27.0474 11.7536 26.44 11.9373 25.8144 12.0458C26.4786 11.5475 26.9734 10.8574 27.2271 10.0661C27.2394 10.0282 27.2267 9.98678 27.1957 9.96212C27.1644 9.93746 27.1211 9.9343 27.0869 9.95462C26.3389 10.3971 25.5288 10.709 24.678 10.882C23.9241 10.1016 22.8713 9.65515 21.7818 9.65515C19.5659 9.65515 17.7634 11.4532 17.7634 13.6633C17.7634 13.9306 17.7893 14.1953 17.8407 14.4524C14.7716 14.2634 11.9019 12.7937 9.9506 10.4064C9.93062 10.3819 9.90036 10.3683 9.86872 10.3715C9.83727 10.3738 9.80919 10.3916 9.79337 10.4186C9.43737 11.0278 9.24929 11.7248 9.24929 12.4338C9.24929 13.6627 9.80899 14.8116 10.7621 15.5698C10.2714 15.511 9.79218 15.3569 9.36004 15.1176C9.33097 15.1013 9.29477 15.1015 9.2657 15.1182C9.23663 15.1348 9.21823 15.1656 9.21744 15.1991L9.21705 15.2504C9.21705 17.0153 10.3829 18.5649 12.0417 19.0794C11.6048 19.1496 11.1515 19.1449 10.7059 19.0601C10.6731 19.054 10.6387 19.0652 10.6161 19.0904C10.5938 19.1157 10.5863 19.151 10.5965 19.183C11.0939 20.7316 12.476 21.8176 14.0847 21.953C12.7428 22.9337 11.1566 23.4503 9.48068 23.4503C9.17196 23.4503 8.86105 23.432 8.55648 23.3963C8.51296 23.3913 8.46985 23.4172 8.45482 23.4588C8.43979 23.5008 8.45581 23.5478 8.49338 23.5717C10.307 24.7319 12.404 25.3448 14.558 25.3448C21.6038 25.3448 25.814 19.6359 25.814 14.1168C25.814 13.9631 25.8111 13.8103 25.8049 13.6578C26.565 13.1032 27.2175 12.4244 27.7435 11.6386C27.7671 11.6035 27.7645 11.5567 27.737 11.524Z" fill="#41ABE1"/>
</svg>
