<svg width="25" height="24" viewBox="0 0 25 24" fill="none" xmlns="http://www.w3.org/2000/svg">
<path d="M24.7498 0H0V24H24.7498V0Z" fill="#7D3DAF"/>
<path d="M20.201 7.7362L20.1961 7.71724C19.8008 6.16738 18.0184 4.50429 16.3816 4.1583L16.3631 4.15461C13.7156 3.66485 11.0312 3.66485 8.3842 4.15461L8.36519 4.1583C6.7289 4.50429 4.94651 6.16738 4.55061 7.71724L4.54627 7.7362C4.05749 9.90064 4.05749 12.0956 4.54627 14.26L4.55061 14.279C4.92962 15.7627 6.57928 17.3494 8.15502 17.7858V19.5158C8.15502 20.142 8.94194 20.4495 9.38944 19.9977L11.1971 18.1756C11.5891 18.1969 11.9814 18.2087 12.3736 18.2087C13.7064 18.2087 15.0396 18.0866 16.3631 17.8417L16.3816 17.838C18.0184 17.492 19.8008 15.8289 20.1961 14.2791L20.201 14.2601C20.6898 12.0956 20.6898 9.90064 20.201 7.7362ZM18.7706 13.9462C18.5066 14.9573 17.1533 16.2144 16.078 16.4466C14.6703 16.7062 13.2514 16.8171 11.834 16.7791C11.8058 16.7783 11.7787 16.7889 11.759 16.8085C11.5579 17.0087 10.4392 18.1223 10.4392 18.1223L9.03535 19.5195C8.93271 19.6232 8.75241 19.5526 8.75241 19.4094V16.5434C8.75241 16.4961 8.71754 16.4558 8.66959 16.4467C8.66931 16.4467 8.66904 16.4466 8.66877 16.4465C7.59348 16.2143 6.24067 14.9573 5.97619 13.9461C5.5363 11.9897 5.5363 10.0064 5.97619 8.05002C6.24067 7.03889 7.59348 5.78184 8.66877 5.54959C11.1273 5.09617 13.62 5.09617 16.078 5.54959C17.1538 5.78184 18.5066 7.03889 18.7706 8.05002C19.2109 10.0065 19.2109 11.9898 18.7706 13.9462Z" fill="white"/>
<path d="M14.7126 15.2691C14.5473 15.2204 14.3898 15.1877 14.2435 15.1289C12.7274 14.5189 11.3321 13.732 10.2269 12.5258C9.5984 11.8399 9.10648 11.0655 8.69065 10.2459C8.49345 9.85728 8.32727 9.45341 8.15789 9.05217C8.00343 8.68627 8.23093 8.30826 8.47048 8.03257C8.69526 7.77384 8.9845 7.57583 9.29775 7.4299C9.54225 7.31599 9.78343 7.38166 9.96199 7.58262C10.348 8.01709 10.7026 8.47378 10.9897 8.97739C11.1663 9.28715 11.1178 9.6658 10.7978 9.87661C10.7201 9.92785 10.6492 9.98799 10.5768 10.0459C10.5132 10.0966 10.4534 10.1478 10.4099 10.2165C10.3303 10.3421 10.3265 10.4903 10.3777 10.6269C10.7723 11.6785 11.4374 12.4962 12.5289 12.9366C12.7036 13.0071 12.879 13.0891 13.0802 13.0664C13.4172 13.0282 13.5263 12.6698 13.7624 12.4825C13.9932 12.2995 14.2882 12.2971 14.5368 12.4497C14.7854 12.6023 15.0265 12.7661 15.2661 12.9317C15.5013 13.0942 15.7355 13.2532 15.9525 13.4384C16.1611 13.6166 16.2329 13.8503 16.1154 14.0921C15.9004 14.5349 15.5875 14.9033 15.1361 15.1384C15.0086 15.2047 14.8564 15.2262 14.7126 15.2691C14.5473 15.2204 14.8564 15.2262 14.7126 15.2691Z" fill="white"/>
<path d="M12.3771 6.92359C14.3601 6.97746 15.9888 8.25364 16.3379 10.1548C16.3973 10.4787 16.4185 10.8099 16.445 11.1387C16.4561 11.2769 16.3754 11.4083 16.2214 11.4101C16.0625 11.412 15.991 11.283 15.9806 11.1448C15.9602 10.8711 15.9461 10.5963 15.9072 10.3249C15.7019 8.89244 14.5239 7.70732 13.0536 7.45301C12.8323 7.41472 12.6059 7.40466 12.3817 7.38186C12.24 7.36743 12.0545 7.35911 12.0231 7.18833C11.9967 7.04514 12.1214 6.93112 12.262 6.9238C12.3002 6.92175 12.3387 6.92343 12.3771 6.92359C14.3601 6.97746 12.3387 6.92343 12.3771 6.92359Z" fill="white"/>
<path d="M15.3917 10.712C15.3884 10.736 15.3867 10.7924 15.3722 10.8456C15.3196 11.0387 15.0177 11.0628 14.9482 10.868C14.9276 10.8102 14.9245 10.7444 14.9244 10.6822C14.9237 10.2749 14.8324 9.86799 14.6206 9.51362C14.4029 9.1494 14.0703 8.84322 13.6801 8.65796C13.4442 8.54594 13.1891 8.47632 12.9305 8.43483C12.8175 8.41671 12.7033 8.4057 12.5897 8.39038C12.4521 8.37184 12.3786 8.28679 12.3852 8.15529C12.3912 8.03206 12.4841 7.94343 12.6226 7.95101C13.0777 7.97608 13.5173 8.07145 13.9219 8.27921C14.7446 8.70172 15.2146 9.36864 15.3518 10.2592C15.358 10.2995 15.368 10.3395 15.3711 10.38C15.3789 10.48 15.3838 10.5801 15.3917 10.712C15.3884 10.736 15.3838 10.5801 15.3917 10.712Z" fill="white"/>
<path d="M14.1558 10.6654C13.9899 10.6683 13.9011 10.5792 13.884 10.4317C13.8721 10.3289 13.8627 10.2247 13.8374 10.1246C13.7876 9.92754 13.6796 9.74491 13.5086 9.62416C13.4279 9.56712 13.3364 9.52557 13.2406 9.49876C13.1189 9.46469 12.9926 9.47407 12.8711 9.44521C12.7393 9.41387 12.6663 9.31034 12.6871 9.19037C12.7059 9.0812 12.8155 8.99599 12.9385 9.00463C13.7073 9.05845 14.2568 9.44389 14.3352 10.3216C14.3408 10.3835 14.3473 10.449 14.3331 10.5082C14.3088 10.6096 14.2314 10.6604 14.1558 10.6654C13.9899 10.6683 14.2314 10.6604 14.1558 10.6654Z" fill="white"/>
</svg>
