<svg width="8" height="14" viewBox="0 0 8 14" fill="none" xmlns="http://www.w3.org/2000/svg">
<path d="M4.84928 6.76664C6.1502 6.11789 7.07595 3.99431 7.15723 1.53224H7.68689C7.85979 1.53224 8 1.37432 8 1.17958V0.352661C8 0.157922 7.85979 0 7.68689 0H0.313112C0.140211 0 0 0.157922 0 0.352661V1.17958C0 1.37432 0.140211 1.53224 0.313112 1.53224H0.842771C0.924117 3.99431 1.8498 6.11782 3.15072 6.76664C3.23626 6.80932 3.29149 6.90087 3.29149 7.00004C3.29149 7.09913 3.23626 7.19068 3.15072 7.23336C1.8498 7.88218 0.924055 10.0057 0.842771 12.4678H0.313112C0.140211 12.4678 0 12.6257 0 12.8204V13.6473C0 13.8421 0.140211 14 0.313112 14H7.68689C7.85979 14 8 13.8421 8 13.6473V12.8204C8 12.6257 7.85979 12.4678 7.68689 12.4678H7.15723C7.07588 10.0058 6.1502 7.88218 4.84928 7.23336C4.76374 7.19068 4.70851 7.09913 4.70851 7.00004C4.70851 6.90087 4.76374 6.80932 4.84928 6.76664ZM3.31948 5.78604C3.11177 5.6485 2.87574 5.37751 2.66326 5.09285C3.04313 5.19618 3.50641 5.28194 3.9975 5.28194C4.50568 5.28194 4.98499 5.19004 5.37293 5.08198C5.18575 5.32941 4.95211 5.59172 4.67926 5.80656C4.56861 5.89367 4.3314 5.99545 4.02705 5.99545C3.84852 5.99545 3.58087 5.95912 3.31948 5.78604ZM1.75042 12.2031C1.75098 12.1664 1.7518 12.1269 1.75292 12.0843C1.75737 11.9111 1.79807 11.5735 1.83408 11.3437C1.83602 11.3311 1.84423 11.3208 1.8555 11.3168L3.81915 10.6218C3.8777 10.6011 3.93844 10.5906 3.99981 10.5906C4.06118 10.5906 4.12199 10.6011 4.18048 10.6218L6.13799 11.3146C6.14951 11.3187 6.15778 11.3294 6.15953 11.3426C6.17387 11.4499 6.19504 11.6162 6.21476 11.7989C6.22954 11.9359 6.23768 12.0791 6.24213 12.2031H1.75042V12.2031Z" fill="#2081F3"/>
</svg>
