<svg width="25" height="24" viewBox="0 0 25 24" fill="none" xmlns="http://www.w3.org/2000/svg">
<path d="M24.7498 0H0V24H24.7498V0Z" fill="#1BD741"/>
<path d="M3.7168 20.402L4.92911 16.2267C4.14952 14.9424 3.73906 13.4812 3.73906 11.9801C3.73906 7.35818 7.61675 3.59796 12.3831 3.59796C17.1494 3.59796 21.027 7.35818 21.027 11.9801C21.027 16.6021 17.1494 20.3623 12.3831 20.3623C10.8979 20.3623 9.44366 19.9936 8.15717 19.2936L3.7168 20.402ZM8.38417 17.7687L8.64876 17.9254C9.77043 18.5894 11.0618 18.9404 12.3831 18.9404C16.3409 18.9404 19.5607 15.818 19.5607 11.9801C19.5607 8.14222 16.3409 5.01985 12.3831 5.01985C8.42528 5.01985 5.20537 8.14222 5.20537 11.9801C5.20537 13.3174 5.59731 14.616 6.33872 15.7355L6.51691 16.0046L5.81878 18.4091L8.38417 17.7687Z" fill="white"/>
<path d="M9.95382 8.07879L9.39293 8.04914C9.21676 8.03982 9.04395 8.09691 8.91079 8.20908C8.63887 8.43806 8.20408 8.88074 8.07054 9.4576C7.87139 10.3177 8.17915 11.371 8.97568 12.4242C9.77222 13.4775 11.2566 15.1627 13.8815 15.8824C14.7273 16.1144 15.3927 15.958 15.9061 15.6396C16.3127 15.3874 16.5929 14.9825 16.694 14.5249L16.7835 14.1193C16.812 13.9904 16.7445 13.8596 16.621 13.8044L14.7254 12.9571C14.6023 12.9021 14.4564 12.9369 14.3736 13.0409L13.6294 13.9764C13.5732 14.047 13.477 14.0751 13.3901 14.0455C12.8805 13.8718 11.1734 13.1785 10.2367 11.4288C10.196 11.3529 10.2061 11.2608 10.2638 11.1961L10.975 10.3983C11.0476 10.3168 11.066 10.2023 11.0223 10.1032L10.2052 8.24947C10.1617 8.15078 10.0642 8.08464 9.95382 8.07879Z" fill="white"/>
</svg>
