<svg width="23" height="23" viewBox="0 0 23 23" fill="none" xmlns="http://www.w3.org/2000/svg">
<path d="M19.6298 3.3702C17.4612 1.19694 14.5698 0 11.5 0C8.4302 0 5.53878 1.19694 3.3702 3.3702C1.20163 5.54347 0 8.4302 0 11.5C0 14.5698 1.19694 17.4612 3.3702 19.6298C5.54347 21.7984 8.4302 23 11.5 23C14.5698 23 17.4612 21.8031 19.6298 19.6298C21.7984 17.4565 23 14.5698 23 11.5C23 8.4302 21.8031 5.53878 19.6298 3.3702V3.3702ZM21.958 10.9837H17.4988C17.4565 9.20939 17.2078 7.50082 16.7712 5.98469C17.6208 5.54816 18.4141 4.99898 19.1416 4.35122C20.7845 6.10673 21.8312 8.42551 21.958 10.9837ZM12.0163 12.0163H16.4708C16.4333 13.6498 16.208 15.2129 15.8184 16.6116C14.6167 16.1282 13.3353 15.8465 12.0163 15.7855V12.0163V12.0163ZM18.4 3.63306C17.7992 4.16347 17.142 4.61408 16.4473 4.98959C16.269 4.49204 16.0671 4.02265 15.8418 3.58143C15.3959 2.69898 14.889 1.97612 14.3304 1.42224C15.8559 1.84939 17.2406 2.61449 18.4 3.63306ZM12.0163 1.19225C13.0912 1.43163 14.1051 2.42204 14.9218 4.03673C15.1424 4.47327 15.3396 4.93796 15.5133 5.43082C14.4102 5.88612 13.232 6.15367 12.0163 6.21469V1.19225ZM15.8231 6.42122C16.208 7.81061 16.4286 9.36429 16.4661 10.9884H12.0163V7.25204C13.34 7.19102 14.6214 6.90469 15.8231 6.42122V6.42122ZM10.9837 10.9837H6.52918C6.56674 9.35959 6.78735 7.80592 7.17225 6.41653C8.37388 6.90469 9.66 7.18633 10.979 7.24265V10.9837H10.9837ZM10.9884 1.19225V6.21469C9.77265 6.15367 8.5898 5.88612 7.49143 5.43082C7.6651 4.93796 7.86225 4.47327 8.08286 4.03673C8.89959 2.42204 9.91347 1.43163 10.9884 1.19225V1.19225ZM8.67429 1.42224C8.11571 1.97612 7.60878 2.70367 7.16286 3.58143C6.94225 4.02265 6.74041 4.49204 6.55735 4.98959C5.86265 4.61408 5.2102 4.16347 4.60469 3.63306C5.76408 2.61449 7.14878 1.84939 8.67429 1.42224ZM3.86306 4.35122C4.59061 4.99898 5.38388 5.54347 6.23347 5.98469C5.79694 7.50551 5.54347 9.20939 5.50592 10.9837H1.04673C1.17347 8.42551 2.2202 6.10673 3.86306 4.35122V4.35122ZM1.04673 12.0163H5.50592C5.54816 13.8047 5.80163 15.518 6.24286 17.0435C5.39796 17.48 4.60469 18.0198 3.88184 18.6676C2.2249 16.9073 1.17347 14.5839 1.04673 12.0163V12.0163ZM4.62347 19.3857C5.22429 18.86 5.87673 18.4094 6.56673 18.0386C6.7451 18.522 6.94225 18.9867 7.16286 19.4186C7.60878 20.301 8.11571 21.0239 8.67429 21.5824C7.15816 21.1553 5.77816 20.3949 4.62347 19.3857ZM10.9884 21.8078C9.91347 21.5684 8.89959 20.578 8.08286 18.9633C7.86694 18.5361 7.67449 18.0808 7.50082 17.5973C8.59918 17.142 9.77735 16.8745 10.9884 16.8182V21.8078V21.8078ZM7.18633 16.6116C6.79674 15.2129 6.57143 13.6498 6.53388 12.0163H10.9884V15.7855C9.66939 15.8418 8.38796 16.1235 7.18633 16.6116ZM12.021 21.8078V16.8182C13.232 16.8792 14.4102 17.142 15.5086 17.5973C15.3349 18.0808 15.1424 18.5361 14.9265 18.9633C14.1098 20.578 13.0959 21.5684 12.021 21.8078V21.8078ZM14.3351 21.5778C14.8937 21.0239 15.4006 20.2963 15.8465 19.4139C16.0671 18.982 16.2643 18.5173 16.4427 18.0339C17.1327 18.4047 17.7851 18.8553 18.3859 19.381C17.2312 20.3949 15.8512 21.1553 14.3351 21.5778V21.5778ZM19.1322 18.6676C18.4094 18.0245 17.6161 17.48 16.7712 17.0435C17.2124 15.518 17.4659 13.8 17.5082 12.0163H21.9673C21.8359 14.5839 20.7845 16.9073 19.1322 18.6676V18.6676Z" fill="#231F20"/>
</svg>
