<svg width="35" height="35" viewBox="0 0 35 35" fill="#8B8B8B" xmlns="http://www.w3.org/2000/svg">
<path d="M25.0735 17.6136C24.8815 16.8008 24.1989 16.2013 23.3774 16.112C21.4324 15.9004 19.4627 15.8994 17.5028 15.9004C15.542 15.8994 13.5728 15.9004 11.6271 16.112C10.806 16.2015 10.1238 16.801 9.93199 17.6136C9.65855 18.7709 9.65527 20.0343 9.65527 21.226C9.65527 22.4177 9.65527 23.6809 9.92871 24.8383C10.1206 25.6508 10.8027 26.2504 11.6243 26.3398C13.5695 26.5516 15.5387 26.5524 17.4993 26.5516C19.4601 26.5526 21.4289 26.5516 23.3747 26.3398C24.1958 26.2504 24.8784 25.6508 25.0703 24.8383C25.3435 23.6809 25.3449 22.4177 25.3449 21.226C25.3447 20.0341 25.3468 18.7709 25.0735 17.6136ZM14.1305 18.5106H12.9949V24.3878H11.9401V18.5106H10.8253V17.5479H14.1305V18.5106ZM16.9955 24.388H16.0466V23.832C15.6697 24.2529 15.3118 24.4581 14.9631 24.4581C14.6575 24.4581 14.4472 24.3375 14.3523 24.0794C14.3006 23.9253 14.2687 23.6813 14.2687 23.3215V19.2914H15.2167V23.0438C15.2167 23.2602 15.2167 23.3726 15.2253 23.403C15.248 23.5463 15.32 23.619 15.4471 23.619C15.6373 23.619 15.8361 23.4763 16.0464 23.1866V19.2914H16.9952L16.9955 24.388ZM20.5975 22.8583C20.5975 23.3297 20.5649 23.6693 20.5016 23.8853C20.3749 24.2645 20.1213 24.4581 19.7442 24.4581C19.4068 24.4581 19.0813 24.2756 18.7642 23.8943V24.3882H17.8162V17.5479H18.7642V19.7818C19.0704 19.4146 19.3955 19.2289 19.7442 19.2289C20.1213 19.2289 20.3751 19.4224 20.5016 19.8039C20.5653 20.009 20.5975 20.346 20.5975 20.8285V22.8583ZM24.1757 22.008H22.2795V22.9114C22.2795 23.3832 22.438 23.6188 22.7639 23.6188C22.9973 23.6188 23.1332 23.4952 23.1874 23.2485C23.1962 23.1983 23.2087 22.9931 23.2087 22.6228H24.176V22.7575C24.176 23.0552 24.1643 23.2602 24.1557 23.3525C24.1239 23.5569 24.0493 23.7424 23.9343 23.9057C23.6717 24.2758 23.2827 24.4583 22.7874 24.4583C22.2914 24.4583 21.9138 24.2844 21.6398 23.9364C21.4387 23.6813 21.3354 23.2796 21.3354 22.738V20.9529C21.3354 20.4081 21.427 20.0096 21.6285 19.752C21.9024 19.4032 22.2797 19.2295 22.7641 19.2295C23.2398 19.2295 23.617 19.4032 23.8826 19.752C24.0813 20.0096 24.1762 20.4081 24.1762 20.9529V22.008H24.1757Z"/>
<path d="M22.756 20.0604C22.4391 20.0604 22.2803 20.2962 22.2803 20.7674V21.239H23.2283V20.7674C23.2281 20.2962 23.0696 20.0604 22.756 20.0604Z" />
<path d="M19.2366 20.0604C19.0804 20.0604 18.9221 20.1323 18.7637 20.285V23.3914C18.9219 23.5459 19.0804 23.619 19.2366 23.619C19.51 23.619 19.649 23.3914 19.649 22.9312V20.7558C19.649 20.2962 19.51 20.0604 19.2366 20.0604Z" />
<path d="M19.7667 15.4306C20.1162 15.4306 20.4798 15.2237 20.8613 14.7981V15.3599H21.8195V10.2092H20.8613V14.1458C20.6489 14.4381 20.4476 14.5827 20.256 14.5827C20.1277 14.5827 20.0522 14.5088 20.0313 14.3641C20.0196 14.3335 20.0196 14.2199 20.0196 14.0013V10.2092H19.0645V14.282C19.0645 14.6458 19.0964 14.8919 19.1493 15.0479C19.2457 15.3088 19.4582 15.4306 19.7667 15.4306Z" />
<path d="M13.0958 12.5606V15.3599H14.1584V12.5606L15.4366 8.44827H14.3621L13.6371 11.1625L12.8828 8.44827H11.7646C11.9887 9.08894 12.2217 9.73281 12.4458 10.3741C12.7867 11.338 12.9994 12.0647 13.0958 12.5606Z" />
<path d="M16.8609 15.4306C17.3409 15.4306 17.714 15.2547 17.9786 14.9033C18.1797 14.6456 18.276 14.2395 18.276 13.692V11.8884C18.276 11.3378 18.1799 10.9353 17.9786 10.6752C17.714 10.3228 17.3411 10.1469 16.8609 10.1469C16.3833 10.1469 16.0104 10.3228 15.7452 10.6752C15.5417 10.9353 15.4453 11.3378 15.4453 11.8884V13.692C15.4453 14.2395 15.5417 14.6456 15.7452 14.9033C16.0102 15.2547 16.3833 15.4306 16.8609 15.4306ZM16.4036 11.7014C16.4036 11.2248 16.552 10.9872 16.8609 10.9872C17.1698 10.9872 17.3178 11.2246 17.3178 11.7014V13.8679C17.3178 14.3445 17.1698 14.5829 16.8609 14.5829C16.552 14.5829 16.4036 14.3445 16.4036 13.8679V11.7014Z" />
</svg>
