<svg width="35" height="35" viewBox="0 0 35 35" fill="none" xmlns="http://www.w3.org/2000/svg">
<rect x="0.5" y="0.5" width="34" height="34" rx="1.5" stroke="#FE0000"/>
<path d="M25.0726 17.6136C24.8805 16.8008 24.1979 16.2013 23.3764 16.112C21.4314 15.9004 19.4618 15.8994 17.5018 15.9004C15.541 15.8994 13.5718 15.9004 11.6262 16.112C10.805 16.2015 10.1229 16.801 9.93101 17.6136C9.65758 18.7709 9.6543 20.0343 9.6543 21.226C9.6543 22.4177 9.6543 23.6809 9.92773 24.8382C10.1196 25.6508 10.8018 26.2504 11.6233 26.3398C13.5685 26.5516 15.5377 26.5524 17.4983 26.5516C19.4591 26.5526 21.4279 26.5516 23.3737 26.3398C24.1949 26.2504 24.8774 25.6508 25.0693 24.8382C25.3425 23.6809 25.344 22.4177 25.344 21.226C25.3437 20.0341 25.3458 18.7709 25.0726 17.6136ZM14.1295 18.5106H12.994V24.3878H11.9392V18.5106H10.8243V17.5479H14.1295V18.5106ZM16.9945 24.388H16.0456V23.832C15.6687 24.2529 15.3108 24.4581 14.9621 24.4581C14.6565 24.4581 14.4462 24.3375 14.3513 24.0794C14.2997 23.9253 14.2677 23.6813 14.2677 23.3215V19.2914H15.2157V23.0438C15.2157 23.2602 15.2157 23.3726 15.2243 23.403C15.2471 23.5463 15.319 23.619 15.4461 23.619C15.6363 23.619 15.8351 23.4762 16.0454 23.1866V19.2914H16.9943L16.9945 24.388ZM20.5965 22.8583C20.5965 23.3297 20.5639 23.6693 20.5006 23.8853C20.3739 24.2645 20.1204 24.4581 19.7432 24.4581C19.4058 24.4581 19.0803 24.2756 18.7632 23.8943V24.3882H17.8152V17.5479H18.7632V19.7817C19.0694 19.4146 19.3945 19.2289 19.7432 19.2289C20.1204 19.2289 20.3741 19.4224 20.5006 19.8039C20.5643 20.0089 20.5965 20.346 20.5965 20.8285V22.8583ZM24.1748 22.008H22.2785V22.9114C22.2785 23.3832 22.437 23.6188 22.7629 23.6188C22.9964 23.6188 23.1323 23.4952 23.1864 23.2484C23.1952 23.1983 23.2077 22.9931 23.2077 22.6227H24.175V22.7575C24.175 23.0552 24.1633 23.2602 24.1547 23.3525C24.1229 23.5569 24.0483 23.7424 23.9333 23.9057C23.6707 24.2758 23.2817 24.4583 22.7865 24.4583C22.2904 24.4583 21.9129 24.2844 21.6388 23.9364C21.4377 23.6813 21.3344 23.2796 21.3344 22.7379V20.9529C21.3344 20.408 21.426 20.0095 21.6275 19.752C21.9014 19.4032 22.2787 19.2295 22.7631 19.2295C23.2389 19.2295 23.616 19.4032 23.8817 19.752C24.0803 20.0095 24.1752 20.408 24.1752 20.9529V22.008H24.1748Z" fill="#FE0000"/>
<path d="M22.755 20.0604C22.4382 20.0604 22.2793 20.2962 22.2793 20.7674V21.239H23.2273V20.7674C23.2271 20.2962 23.0687 20.0604 22.755 20.0604Z" fill="#FE0000"/>
<path d="M19.2366 20.0604C19.0804 20.0604 18.9221 20.1323 18.7637 20.285V23.3914C18.9219 23.5459 19.0804 23.619 19.2366 23.619C19.51 23.619 19.649 23.3914 19.649 22.9312V20.7558C19.649 20.2962 19.51 20.0604 19.2366 20.0604Z" fill="#FE0000"/>
<path d="M19.7647 15.4306C20.1142 15.4306 20.4779 15.2237 20.8593 14.7981V15.3599H21.8176V10.2092H20.8593V14.1458C20.647 14.4381 20.4457 14.5827 20.254 14.5827C20.1257 14.5827 20.0503 14.5088 20.0294 14.3641C20.0177 14.3335 20.0177 14.2199 20.0177 14.0013V10.2092H19.0625V14.282C19.0625 14.6458 19.0945 14.8919 19.1474 15.0479C19.2437 15.3088 19.4563 15.4306 19.7647 15.4306Z" fill="#FE0000"/>
<path d="M13.0948 12.5606V15.3599H14.1574V12.5606L15.4356 8.44824H14.3611L13.6361 11.1625L12.8818 8.44824H11.7637C11.9877 9.08891 12.2208 9.73278 12.4448 10.3741C12.7857 11.338 12.9984 12.0647 13.0948 12.5606Z" fill="#FE0000"/>
<path d="M16.8589 15.4306C17.339 15.4306 17.712 15.2547 17.9767 14.9033C18.1777 14.6455 18.2741 14.2394 18.2741 13.692V11.8884C18.2741 11.3378 18.1779 10.9353 17.9767 10.6751C17.712 10.3227 17.3392 10.1469 16.8589 10.1469C16.3813 10.1469 16.0085 10.3227 15.7432 10.6751C15.5397 10.9353 15.4434 11.3378 15.4434 11.8884V13.692C15.4434 14.2394 15.5397 14.6455 15.7432 14.9033C16.0083 15.2547 16.3813 15.4306 16.8589 15.4306ZM16.4016 11.7013C16.4016 11.2248 16.55 10.9872 16.8589 10.9872C17.1678 10.9872 17.3158 11.2246 17.3158 11.7013V13.8679C17.3158 14.3445 17.1678 14.5828 16.8589 14.5828C16.55 14.5828 16.4016 14.3445 16.4016 13.8679V11.7013Z" fill="#FE0000"/>
</svg>
