<svg width="48" height="48" viewBox="0 0 48 48" fill="none" xmlns="http://www.w3.org/2000/svg">
<path d="M45.9689 38.3355L36.2537 28.641C35.3224 27.7123 34.0767 27.1962 32.7422 27.1896C32.4742 27.1896 32.2101 27.211 31.9537 27.2539L29.9768 25.2808C30.73 24.4131 30.6958 23.0953 29.8698 22.2705L28.5259 20.9302C28.3864 20.791 28.2315 20.6732 28.066 20.5775C28.9081 18.7678 29.3801 16.7523 29.3801 14.6295C29.3801 6.82239 23.0149 0.470581 15.1901 0.470581C7.36521 0.470581 1 6.82239 1 14.6295C1 22.4367 7.36576 28.7885 15.1901 28.7885C17.318 28.7885 19.3374 28.3186 21.1511 27.4768C21.247 27.6418 21.3645 27.7964 21.5045 27.9362L22.8484 29.2771C23.2807 29.7085 23.8481 29.9236 24.4161 29.9236C24.9333 29.9236 25.45 29.7426 25.8647 29.3844L27.8444 31.3597C27.5935 32.9114 28.1085 34.5257 29.2334 35.6476L38.9486 45.3421C39.8794 46.2714 41.1251 46.787 42.4552 46.7941H42.4794C43.7919 46.7941 45.0309 46.2785 45.9695 45.3421C47.905 43.4108 47.905 40.2679 45.9689 38.3355ZM2.29311 14.6306C2.29311 7.53493 8.07877 1.76252 15.1895 1.76252C22.3008 1.76252 28.0859 7.53548 28.0859 14.6306C28.0859 21.7258 22.3008 27.4988 15.1895 27.4988C8.07877 27.4988 2.29311 21.7258 2.29311 14.6306ZM23.7627 28.3643L22.4194 27.0239C22.3736 26.9783 22.3361 26.9293 22.3019 26.8787C24.4387 25.6385 26.2226 23.8579 27.4655 21.7258C27.5168 21.7599 27.5659 21.7973 27.6111 21.843L28.9555 23.1834C29.3139 23.541 29.315 24.1231 28.9583 24.4819L25.0673 28.3648C24.7067 28.7236 24.1222 28.7236 23.7627 28.3643ZM45.0541 44.4298C44.3598 45.1231 43.4455 45.5038 42.4789 45.5038H42.4607C41.4742 45.4983 40.5511 45.117 39.8618 44.4298L30.1466 34.7359C29.2511 33.8412 28.8778 32.524 29.1744 31.2997L29.2588 30.9476L26.7845 28.4782L29.0675 26.2002L31.5462 28.6735L31.9035 28.5822C32.1676 28.5151 32.45 28.4804 32.7395 28.4798C33.7265 28.4853 34.6496 28.8666 35.3389 29.5539L45.0541 39.2483C46.4862 40.6767 46.4862 43.0014 45.0541 44.4298Z" fill="black" stroke="black" stroke-width="0.7"/>
<path d="M15.1902 3.80109C9.20552 3.80109 4.33691 8.65904 4.33691 14.6306C4.33691 20.6022 9.20552 25.4602 15.1902 25.4602C21.175 25.4602 26.0436 20.6022 26.0436 14.6306C26.0436 8.65904 21.1744 3.80109 15.1902 3.80109ZM15.1902 24.1694C9.91908 24.1694 5.63057 19.8902 5.63057 14.6306C5.63057 9.37103 9.91908 5.09192 15.1902 5.09192C20.4614 5.09192 24.7499 9.37103 24.7499 14.6306C24.7499 19.8902 20.4614 24.1694 15.1902 24.1694Z" fill="black" stroke="black" stroke-width="0.7"/>
</svg>
