<svg width="48" height="51" viewBox="0 0 48 51" fill="none" xmlns="http://www.w3.org/2000/svg">
<circle cx="27" cy="8" r="8" fill="#2081F3"/>
<path d="M45.9689 41.3355L36.2537 31.641C35.3224 30.7123 34.0767 30.1962 32.7422 30.1896C32.4742 30.1896 32.2101 30.211 31.9537 30.2539L29.9768 28.2808C30.73 27.4131 30.6958 26.0953 29.8698 25.2705L28.5259 23.9302C28.3864 23.791 28.2315 23.6732 28.066 23.5775C28.9081 21.7678 29.3801 19.7523 29.3801 17.6295C29.3801 9.82239 23.0149 3.47058 15.1901 3.47058C7.36521 3.47058 1 9.82239 1 17.6295C1 25.4367 7.36576 31.7885 15.1901 31.7885C17.318 31.7885 19.3374 31.3186 21.1511 30.4768C21.247 30.6418 21.3645 30.7964 21.5045 30.9362L22.8484 32.2771C23.2807 32.7085 23.8481 32.9236 24.4161 32.9236C24.9333 32.9236 25.45 32.7426 25.8647 32.3844L27.8444 34.3597C27.5935 35.9114 28.1085 37.5257 29.2334 38.6476L38.9486 48.3421C39.8794 49.2714 41.1251 49.787 42.4552 49.7941H42.4794C43.7919 49.7941 45.0309 49.2785 45.9695 48.3421C47.905 46.4108 47.905 43.2679 45.9689 41.3355ZM2.29311 17.6306C2.29311 10.5349 8.07877 4.76252 15.1895 4.76252C22.3008 4.76252 28.0859 10.5355 28.0859 17.6306C28.0859 24.7258 22.3008 30.4988 15.1895 30.4988C8.07877 30.4988 2.29311 24.7258 2.29311 17.6306ZM23.7627 31.3643L22.4194 30.0239C22.3736 29.9783 22.3361 29.9293 22.3019 29.8787C24.4387 28.6385 26.2226 26.8579 27.4655 24.7258C27.5168 24.7599 27.5659 24.7973 27.6111 24.843L28.9555 26.1834C29.3139 26.541 29.315 27.1231 28.9583 27.4819L25.0673 31.3648C24.7067 31.7236 24.1222 31.7236 23.7627 31.3643ZM45.0541 47.4298C44.3598 48.1231 43.4455 48.5038 42.4789 48.5038H42.4607C41.4742 48.4983 40.5511 48.117 39.8618 47.4298L30.1466 37.7359C29.2511 36.8412 28.8778 35.524 29.1744 34.2997L29.2588 33.9476L26.7845 31.4782L29.0675 29.2002L31.5462 31.6735L31.9035 31.5822C32.1676 31.5151 32.45 31.4804 32.7395 31.4798C33.7265 31.4853 34.6496 31.8666 35.3389 32.5539L45.0541 42.2483C46.4862 43.6767 46.4862 46.0014 45.0541 47.4298Z" fill="black" stroke="black" stroke-width="0.7"/>
<path d="M15.1902 6.80109C9.20552 6.80109 4.33691 11.659 4.33691 17.6306C4.33691 23.6022 9.20552 28.4602 15.1902 28.4602C21.175 28.4602 26.0436 23.6022 26.0436 17.6306C26.0436 11.659 21.1744 6.80109 15.1902 6.80109ZM15.1902 27.1694C9.91908 27.1694 5.63057 22.8902 5.63057 17.6306C5.63057 12.371 9.91908 8.09192 15.1902 8.09192C20.4614 8.09192 24.7499 12.371 24.7499 17.6306C24.7499 22.8902 20.4614 27.1694 15.1902 27.1694Z" fill="black" stroke="black" stroke-width="0.7"/>
</svg>
