<svg width="58" height="44" viewBox="0 0 58 44" fill="none" xmlns="http://www.w3.org/2000/svg">
<path d="M56.9858 16.0747C56.9902 16.0521 56.9959 16.0303 56.9988 16.0077C57.001 15.9859 56.9995 15.9641 56.9995 15.943C56.9995 15.9219 57.001 15.9001 56.9988 15.8783C56.9959 15.8558 56.9902 15.8332 56.9858 15.8114C56.9815 15.7917 56.9794 15.7714 56.9729 15.751C56.9628 15.7161 56.9484 15.6827 56.9319 15.6499C56.929 15.6434 56.9275 15.6368 56.9239 15.6303C56.9239 15.6303 56.9239 15.6303 56.9239 15.6296C56.903 15.5903 56.8786 15.5532 56.8498 15.5183C56.8375 15.503 56.8239 15.4914 56.8102 15.4783C56.7936 15.4609 56.777 15.4419 56.7583 15.4259C56.7238 15.3976 56.6871 15.3729 56.6489 15.3518C56.6489 15.3518 56.6482 15.3518 56.6482 15.351L29.3133 0.754269C29.3126 0.753541 29.3111 0.753548 29.3097 0.752094L29.3082 0.751361C29.3025 0.748452 29.2967 0.747723 29.2917 0.744814C29.2586 0.728814 29.2247 0.713543 29.1894 0.702634C29.1678 0.696089 29.1455 0.693182 29.1232 0.688818C29.1038 0.685182 29.0836 0.679364 29.0642 0.67791C29.039 0.675728 29.0145 0.67645 28.9893 0.677177C28.9713 0.677177 28.954 0.676455 28.9353 0.67791C28.9079 0.680091 28.8813 0.687361 28.8547 0.693179C28.8395 0.696088 28.8244 0.69827 28.8093 0.702634C28.7682 0.714997 28.7294 0.731725 28.6912 0.751361C28.6905 0.751361 28.6898 0.751366 28.689 0.752094C28.6869 0.752821 28.6854 0.754274 28.6833 0.755001L1.34912 15.351C1.34912 15.351 1.34839 15.351 1.34839 15.3518C1.30951 15.3721 1.2728 15.3969 1.23896 15.4252C1.22096 15.4405 1.20656 15.4579 1.19072 15.4739C1.17632 15.4885 1.16048 15.5016 1.14752 15.5176C1.11944 15.5518 1.09497 15.5896 1.07481 15.6281C1.07481 15.6288 1.07408 15.6288 1.07408 15.6288C1.06976 15.6376 1.06761 15.6456 1.06401 15.6543C1.04889 15.6849 1.0352 15.7168 1.02584 15.7496C1.02008 15.7699 1.01721 15.791 1.01289 15.8107C1.00857 15.8325 1.0028 15.8543 1.00064 15.8768C0.9992 15.8987 1.00064 15.9205 1.00064 15.9416C1.00064 15.9627 0.9992 15.9852 1.00064 16.0063C1.0028 16.0288 1.00857 16.0507 1.01289 16.0725C1.01721 16.0928 1.01936 16.1139 1.02584 16.1336C1.03592 16.1663 1.04961 16.1976 1.06401 16.2288C1.06761 16.2368 1.06976 16.2456 1.07408 16.2536C1.07408 16.2536 1.07409 16.2543 1.07481 16.255C1.07625 16.2579 1.07912 16.2616 1.08056 16.2645C1.09712 16.2957 1.11728 16.3248 1.13816 16.3517C1.14464 16.3605 1.15184 16.3685 1.15904 16.3772C1.17992 16.4026 1.20296 16.4252 1.22744 16.447C1.23248 16.4514 1.2368 16.4565 1.24256 16.4608C1.27352 16.4863 1.30664 16.5081 1.3412 16.527C1.34408 16.5292 1.34696 16.5314 1.35056 16.5328L6.57692 19.324V26.7304C4.92168 27.0453 3.6653 28.5151 3.6653 30.2773C3.6653 31.6627 4.44288 32.8685 5.57974 33.4735L2.85461 42.4581C2.74805 42.8115 2.9446 43.1861 3.2938 43.2937C3.3586 43.3133 3.42411 43.3235 3.48818 43.3235C3.77186 43.3235 4.03394 43.1381 4.12106 42.8501L6.57619 34.755V42.6544C6.57619 43.0239 6.87283 43.3235 7.23858 43.3235C7.60433 43.3235 7.90097 43.0239 7.90097 42.6544V34.7528L10.3561 42.8501C10.4439 43.1381 10.706 43.3235 10.9897 43.3235C11.0538 43.3235 11.1193 43.3141 11.1841 43.2944C11.534 43.1861 11.7306 42.8115 11.6233 42.4588L8.89886 33.4735C10.035 32.8677 10.8111 31.6634 10.8111 30.278C10.8111 28.5173 9.5555 27.0475 7.90097 26.7319V20.0324L13.5348 23.041V31.6438C13.5348 31.7347 13.5644 33.8968 15.576 36.0269C18.1643 38.768 22.6801 40.1578 28.9979 40.1578L28.9986 40.157L28.9994 40.1578C35.3165 40.1578 39.8322 38.768 42.4206 36.0269C44.4329 33.8961 44.4617 31.7347 44.4617 31.6416V23.0418L56.6482 16.5343C56.6518 16.5328 56.6547 16.5299 56.6575 16.5285C56.6921 16.5096 56.7252 16.4877 56.7554 16.463C56.7619 16.4587 56.7662 16.4528 56.7713 16.4485C56.795 16.4274 56.8174 16.4048 56.839 16.3801C56.8462 16.3714 56.8541 16.3626 56.8606 16.3539C56.8807 16.327 56.9002 16.2987 56.9167 16.2681C56.9189 16.2645 56.9218 16.2608 56.9239 16.2565C56.9239 16.2565 56.9247 16.2565 56.9247 16.2557C56.9275 16.2492 56.929 16.2426 56.9326 16.2361C56.9477 16.2034 56.9628 16.1699 56.9736 16.135C56.9801 16.1154 56.9822 16.095 56.9858 16.0747ZM9.48709 30.278C9.48709 31.531 8.47839 32.5492 7.23858 32.5492C5.99877 32.5492 4.99007 31.531 4.99007 30.278C4.99007 29.0256 5.99877 28.0068 7.23858 28.0068C8.47839 28.0068 9.48709 29.0264 9.48709 30.278ZM29.0001 29.7856L9.31142 19.2717L25.925 16.6696C26.4578 17.6368 27.635 18.311 29.0001 18.311C30.862 18.311 32.3775 17.055 32.3775 15.511C32.3775 13.9663 30.8627 12.7104 29.0001 12.7104C27.1972 12.7104 25.7198 13.8871 25.6262 15.3619L7.35017 18.2244L3.07707 15.9423L29.0001 2.10042L54.9224 15.9423L29.0001 29.7856ZM26.9467 15.511C26.9467 14.7183 27.887 14.0492 29.0008 14.0492C30.1132 14.0492 31.0535 14.7183 31.0535 15.511C31.0535 16.3037 30.1132 16.9728 29.0008 16.9728C27.887 16.9728 26.9467 16.3037 26.9467 15.511ZM43.1377 31.6401C43.1377 31.7121 42.957 38.8189 29.0008 38.8189H29.0001C29.0001 38.8189 28.9994 38.8189 28.9986 38.8189C21.6807 38.8189 18.2219 36.8393 16.6092 35.179C14.91 33.4299 14.8625 31.7078 14.8618 31.6416V23.7479L28.6919 31.1332C28.6991 31.1369 28.707 31.1398 28.7142 31.1434C28.7279 31.1507 28.7416 31.1572 28.756 31.163C28.7704 31.1689 28.7855 31.1732 28.7999 31.1783C28.8114 31.182 28.823 31.1863 28.8345 31.1892C28.8532 31.1943 28.8727 31.198 28.8921 31.2016C28.9007 31.2031 28.9086 31.2052 28.9173 31.206C28.9454 31.2096 28.9735 31.2118 29.0015 31.2118C29.0296 31.2118 29.0577 31.2096 29.0858 31.206C29.0944 31.2052 29.1023 31.2031 29.111 31.2016C29.1297 31.198 29.1491 31.1943 29.1686 31.1892C29.1801 31.1863 29.1916 31.182 29.2024 31.1783C29.2175 31.1732 29.2319 31.1689 29.247 31.163C29.2614 31.1572 29.2751 31.1507 29.2888 31.1441C29.2967 31.1412 29.3039 31.1376 29.3118 31.134L43.1406 23.7494V31.6401H43.1377Z" fill="black" stroke="black" stroke-width="0.5"/>
<path d="M5.29785 30.278C5.29785 31.3587 6.16832 32.238 7.23821 32.238C8.30883 32.238 9.17929 31.3587 9.17929 30.278C9.17929 29.1973 8.30883 28.3181 7.23821 28.3181C6.16904 28.3181 5.29785 29.1973 5.29785 30.278ZM7.23893 29.6562C7.57876 29.6562 7.85452 29.9355 7.85452 30.278C7.85452 30.6205 7.57876 30.8998 7.23893 30.8998C6.89909 30.8998 6.62334 30.6205 6.62334 30.278C6.62334 29.9355 6.89909 29.6562 7.23893 29.6562Z" fill="black" stroke="black" stroke-width="0.5"/>
</svg>
