<svg width="257" height="61" viewBox="0 0 257 61" fill="none" xmlns="http://www.w3.org/2000/svg">
<path d="M30.5842 61C47.4754 61 61.1685 47.3447 61.1685 30.5C61.1685 13.6553 47.4754 0 30.5842 0C13.693 0 0 13.6553 0 30.5C0 47.3447 13.693 61 30.5842 61Z" fill="#E83A41"/>
<path d="M30.6642 48.2877C40.4187 48.2877 48.3264 40.4018 48.3264 30.6741C48.3264 20.9464 40.4187 13.0605 30.6642 13.0605C20.9096 13.0605 13.002 20.9464 13.002 30.6741C13.002 40.4018 20.9096 48.2877 30.6642 48.2877Z" fill="#FDFDFD"/>
<path d="M24.1582 16.8169C23.1009 18.2485 21.5503 22.3854 21.5724 22.442H17.9033C19.3639 20.429 20.991 18.482 24.1582 16.8169Z" fill="#E83A41"/>
<path d="M24.1582 44.3522C23.1009 42.9205 21.5503 38.7836 21.5724 38.7271H17.9033C19.3639 40.7401 20.991 42.6871 24.1582 44.3522Z" fill="#E83A41"/>
<path d="M37.167 44.3522C38.2243 42.9205 39.7749 38.7836 39.7528 38.7271H43.4219C41.9613 40.7401 40.3342 42.6871 37.167 44.3522Z" fill="#E83A41"/>
<path d="M37.167 16.8169C38.2243 18.2485 39.7749 22.3854 39.7528 22.442H43.4219C41.9613 20.429 40.3342 18.482 37.167 16.8169Z" fill="#E83A41"/>
<path d="M29.3813 15.5374V22.369C27.5778 22.4224 25.7742 22.3885 23.9707 22.442C25.8093 17.7074 27.3576 16.6459 29.3813 15.5374Z" fill="#E83A41"/>
<path d="M31.7559 15.5374V22.369C33.5594 22.4224 35.3629 22.3885 37.1665 22.442C35.3279 17.7074 33.7796 16.6459 31.7559 15.5374Z" fill="#E83A41"/>
<path d="M31.7666 45.6246V38.793C33.5701 38.7395 35.3737 38.7734 37.1772 38.72C35.3386 43.4545 33.7904 44.516 31.7666 45.6246Z" fill="#E83A41"/>
<path d="M29.3813 45.6246V38.793C27.5778 38.7395 25.7742 38.7734 23.9707 38.72C25.8093 43.4545 27.3576 44.516 29.3813 45.6246Z" fill="#E83A41"/>
<path d="M23.0035 24.834C25.1208 24.834 27.2637 24.9079 29.381 24.9079V29.2753H22.4805C22.5547 27.7848 22.7294 26.301 23.0035 24.834Z" fill="#E83A41"/>
<path d="M23.0035 36.4574C25.1208 36.4574 27.2637 36.3835 29.381 36.3835V32.0161H22.4805C22.5547 33.5066 22.7294 34.9904 23.0035 36.4574Z" fill="#E83A41"/>
<path d="M38.1441 36.4574C36.0268 36.4574 33.8839 36.3835 31.7666 36.3835V32.0161H38.6671C38.593 33.5066 38.4182 34.9904 38.1441 36.4574Z" fill="#E83A41"/>
<path d="M38.1441 24.834C36.0268 24.834 33.8839 24.9079 31.7666 24.9079V29.2753H38.6671C38.593 27.7848 38.4182 26.301 38.1441 24.834Z" fill="#E83A41"/>
<path d="M16.6504 24.7441C16.0866 26.1768 15.7299 27.682 15.5908 29.2148H20.0786C20.147 27.7355 20.3486 26.2654 20.6811 24.8222C19.3375 24.7739 17.994 24.7925 16.6504 24.7441Z" fill="#E83A41"/>
<path d="M44.7699 24.7441C45.3337 26.1768 45.6905 27.682 45.8295 29.2148H41.3417C41.2734 27.7355 41.0717 26.2654 40.7393 24.8222C42.0828 24.7739 43.4264 24.7925 44.7699 24.7441Z" fill="#E83A41"/>
<path d="M44.7699 36.4721C45.3337 35.0395 45.6905 33.5342 45.8295 32.0015H41.3417C41.2734 33.4807 41.0717 34.9508 40.7393 36.394C42.0828 36.4423 43.4264 36.4238 44.7699 36.4721Z" fill="#E83A41"/>
<path d="M16.6504 36.4721C16.0866 35.0395 15.7299 33.5342 15.5908 32.0015H20.0786C20.147 33.4807 20.3486 34.9508 20.6811 36.394C19.3375 36.4423 17.994 36.4238 16.6504 36.4721Z" fill="#E83A41"/>
<path d="M76.1582 25.6924H81.152C81.2232 25.772 81.3083 25.8227 81.3202 25.8868C81.8037 28.4787 84.2745 29.7948 86.7963 28.7987C87.1671 28.6757 87.4966 28.453 87.7484 28.155C88.0002 27.857 88.1646 27.4955 88.2233 27.1102C88.2821 26.725 88.2329 26.331 88.0813 25.9719C87.9297 25.6127 87.6815 25.3024 87.3641 25.075C86.5206 24.4559 85.4579 24.1267 84.489 23.6774C82.8344 22.9102 81.0905 22.2896 79.5408 21.3536C77.5801 20.1694 76.4609 18.3482 76.7419 15.9797C77.0365 13.4965 78.5618 11.924 80.8769 11.0792C84.0871 9.90774 87.2861 9.87159 90.3886 11.4166C92.6694 12.5524 93.6378 14.5319 93.8625 17.1477C92.1965 17.1477 90.6125 17.1751 89.0319 17.1162C88.8119 17.108 88.4967 16.7071 88.4162 16.4332C88.2857 15.9092 87.9982 15.4372 87.592 15.0803C87.1858 14.7233 86.6801 14.4983 86.1424 14.4353C84.8399 14.22 83.5691 14.3361 82.6134 15.3877C81.8136 16.2678 81.8652 17.2439 82.8233 17.9511C83.538 18.4487 84.3059 18.8657 85.1127 19.1947C86.5332 19.8164 88.0021 20.3302 89.4205 20.9563C92.5632 22.3437 94.029 24.8394 93.6356 28.0338C93.3241 30.5632 91.1967 32.5806 88.0123 33.041C84.8745 33.4947 81.7766 33.2818 79.0526 31.3976C77.1134 30.0562 76.2665 28.1347 76.1582 25.6924Z" fill="white"/>
<path d="M134.703 17.4886V9.35132H139.818V32.7873C138.472 32.8421 137.124 32.8221 135.78 32.7276C135.43 32.6882 135.163 31.9169 134.84 31.4557C134.098 31.87 133.245 32.5664 132.269 32.8485C129.369 33.6868 126.505 32.2449 125.303 29.2988C124.666 27.8028 124.333 26.1958 124.323 24.5707C124.314 22.9456 124.627 21.3347 125.245 19.8311C126.823 15.9307 130.957 14.8974 134.317 17.446C134.366 17.4834 134.459 17.4643 134.703 17.4886ZM134.601 24.6426C134.601 23.9333 134.605 23.224 134.601 22.5148C134.645 21.9402 134.466 21.3707 134.102 20.9233C133.738 20.4758 133.216 20.1845 132.643 20.1093C131.344 19.8556 130.305 20.3432 129.9 21.6032C129.257 23.5673 129.27 25.6862 129.935 27.6427C130.139 28.1658 130.521 28.6013 131.013 28.8739C131.505 29.1465 132.077 29.2391 132.63 29.1357C133.184 29.0322 133.683 28.7393 134.043 28.3074C134.403 27.8755 134.6 27.3319 134.601 26.7705C134.605 26.0612 134.601 25.3519 134.601 24.6426H134.601Z" fill="white"/>
<path d="M143.546 39.0132V35.553C143.902 35.51 144.238 35.4623 144.577 35.4293C146.518 35.2403 147.409 33.8681 146.774 32.0289C145.139 27.2934 143.502 22.5583 141.864 17.8237C141.711 17.3797 141.586 16.9261 141.384 16.2687C143.141 16.2687 144.79 16.2353 146.434 16.3084C146.655 16.3182 146.948 16.8382 147.043 17.1682C147.817 19.8462 148.552 22.5352 149.533 25.2547C149.69 24.7469 149.849 24.2396 150.005 23.7314C150.686 21.5063 151.41 19.2928 152.023 17.0495C152.237 16.2684 152.605 16.0762 153.356 16.1041C154.781 16.1571 156.209 16.1195 157.782 16.1195C157.218 17.7422 156.705 19.2268 156.188 20.7105C154.502 25.5539 152.839 30.4055 151.119 35.2374C149.895 38.6787 147.167 40.0362 143.546 39.0132Z" fill="white"/>
<path d="M107.192 16.3186H112.302C112.302 17.244 112.302 18.1008 112.302 18.9576C112.303 21.6002 112.303 24.2427 112.304 26.8853C112.303 27.7515 112.423 28.5908 113.353 28.9537C113.832 29.164 114.36 29.2337 114.877 29.1546C115.394 29.0755 115.877 28.8509 116.271 28.5073C116.555 28.1532 116.698 27.7065 116.672 27.2535C116.704 24.0591 116.689 20.8642 116.689 17.6695C116.689 17.2466 116.689 16.8238 116.689 16.3246H121.845V32.7246H117.223C117.134 32.2869 117.043 31.8425 116.979 31.5302C115.828 32.0164 114.741 32.7009 113.563 32.9304C110.183 33.5889 107.486 31.8485 107.258 28.5321C106.98 24.5012 107.192 20.4374 107.192 16.3186Z" fill="white"/>
<path d="M204.37 10.5676C206.251 10.5676 207.921 10.5267 209.585 10.6059C209.878 10.6198 210.259 11.0866 210.411 11.4266C211.501 13.8783 212.542 16.3516 213.601 18.8171C213.754 19.1729 213.92 19.5233 214.16 20.0537C214.374 19.6625 214.53 19.4246 214.641 19.1676C215.749 16.5945 216.873 14.0274 217.937 11.4363C218.008 11.1534 218.181 10.9064 218.423 10.7423C218.665 10.5782 218.959 10.5084 219.249 10.5461C220.799 10.5928 222.35 10.5605 224.134 10.5605C223.896 11.0817 223.743 11.453 223.562 11.8101C221.539 15.7879 219.489 19.7526 217.507 23.7504C217.177 24.4536 216.995 25.217 216.972 25.9932C216.898 27.9241 216.917 29.8603 216.962 31.7929C216.98 32.569 216.714 32.837 215.933 32.8114C214.506 32.7647 213.076 32.7981 211.479 32.7981C211.479 30.8097 211.407 28.926 211.501 27.0504C211.562 25.5944 211.22 24.1497 210.513 22.8746C208.619 19.2303 206.815 15.5403 204.978 11.8672C204.804 11.52 204.648 11.164 204.37 10.5676Z" fill="white"/>
<path d="M242.329 16.3193H247.405C247.423 16.7256 247.456 17.1384 247.457 17.5513C247.462 20.5894 247.45 23.6275 247.463 26.6655C247.473 28.8601 249.01 29.8025 250.978 28.8397C251.311 28.7129 251.595 28.4828 251.786 28.1832C251.978 27.8836 252.068 27.5305 252.043 27.176C251.998 24.0201 252.025 20.8633 252.025 17.7068V16.3368H257V32.7265H252.369C252.294 32.2729 252.222 31.8293 252.167 31.4948C251.051 31.9878 250.005 32.6855 248.862 32.9114C245.254 33.6248 242.602 31.7924 242.383 28.184C242.145 24.266 242.329 20.3229 242.329 16.3193Z" fill="white"/>
<path d="M105.072 16.3148V19.7515H102.382C102.382 21.4744 102.382 23.0778 102.383 24.6812C102.383 25.6289 102.364 26.5772 102.393 27.5241C102.432 28.8532 102.844 29.1802 104.188 29.0238C104.499 28.9876 104.813 28.9797 105.279 28.9485C105.279 29.6707 105.28 30.328 105.279 30.9853C105.278 32.7406 105.278 32.7471 103.546 32.8989C103.069 32.9401 102.589 32.9543 102.11 32.9411C98.6806 32.8502 97.248 31.4349 97.2129 28.0513C97.185 25.3688 97.2073 22.6857 97.2073 19.8851L95.1631 19.665V16.3326L97.1514 16.1687V12.2192H102.352V16.1651L105.072 16.3148Z" fill="white"/>
<path d="M198.426 16.3647C198.557 17.0733 198.66 17.628 198.825 18.5207C199.867 16.7803 201.168 16.1186 202.872 16.1648C203.609 16.1849 203.973 16.3592 203.93 17.1781C203.868 18.3491 203.914 19.5256 203.914 20.663C202.677 20.7933 201.645 20.8232 200.649 21.0274C199.498 21.2636 198.952 21.9904 198.977 23.2408C199.039 26.3155 198.997 29.3922 198.997 32.5765H194.001C193.971 32.1873 193.916 31.8029 193.915 31.4185C193.909 26.8382 193.94 22.2575 193.889 17.6778C193.877 16.6464 194.16 16.2534 195.233 16.3456C196.259 16.4339 197.3 16.3647 198.426 16.3647Z" fill="#E83A41"/>
<path d="M80.883 51.1357V47.1228L77.7549 41.6787H79.2087L80.604 44.2884C80.9856 45.0039 81.2795 45.5793 81.5878 46.2387H81.6171C81.8961 45.6213 82.234 45.0039 82.6159 44.2884L84.0401 41.6787H85.494L82.1751 47.1088V51.1357H80.883Z" fill="#676767"/>
<path d="M91.8953 47.6839C91.8953 50.1957 90.0742 51.29 88.3563 51.29C86.4324 51.29 84.9492 49.9431 84.9492 47.7962C84.9492 45.5234 86.5059 44.1902 88.4735 44.1902C90.515 44.1902 91.8953 45.6073 91.8953 47.6839ZM86.2563 47.7542C86.2563 49.2414 87.1521 50.364 88.4149 50.364C89.6484 50.364 90.5736 49.2557 90.5736 47.7262C90.5736 46.5756 89.9717 45.1162 88.4442 45.1162C86.9171 45.1162 86.2563 46.4633 86.2563 47.7542Z" fill="#676767"/>
<path d="M99.4727 49.2837C99.4727 49.9851 99.4874 50.6025 99.5316 51.1357H98.3861L98.3128 50.0274H98.2832C98.0353 50.4232 97.6882 50.7478 97.2763 50.9692C96.8643 51.1906 96.4016 51.3011 95.9337 51.29C94.8178 51.29 93.4814 50.7008 93.4814 48.3154V44.3445H94.7735V48.1051C94.7735 49.396 95.1847 50.2657 96.3596 50.2657C96.7222 50.264 97.0764 50.1569 97.379 49.9576C97.6815 49.7583 97.9193 49.4753 98.0631 49.1434C98.1412 48.942 98.181 48.7279 98.1806 48.512V44.3445H99.4727V49.2837Z" fill="#676767"/>
<path d="M101.615 46.4632C101.615 45.6635 101.601 44.9758 101.557 44.3443H102.687L102.731 45.6775H102.79C102.921 45.2556 103.181 44.8852 103.534 44.6184C103.887 44.3516 104.315 44.2018 104.758 44.1901C104.881 44.1885 105.005 44.2026 105.125 44.2321V45.3969C104.98 45.3667 104.832 45.3525 104.684 45.3546C104.252 45.364 103.837 45.5301 103.518 45.8219C103.2 46.1137 102.998 46.5113 102.952 46.9404C102.915 47.13 102.896 47.3225 102.893 47.5155V51.1356H101.615L101.615 46.4632Z" fill="#676767"/>
<path d="M115.17 46.7019H110.969V50.1114H115.651V51.1357H109.573V41.6787H115.411V42.703H110.969V45.6916H115.17L115.17 46.7019Z" fill="#676767"/>
<path d="M122.835 41.1736V49.3819C122.835 49.9851 122.849 50.6728 122.891 51.1357H121.78L121.723 49.9571H121.695C121.473 50.3745 121.138 50.721 120.727 50.9568C120.316 51.1926 119.847 51.308 119.374 51.29C117.727 51.29 116.461 49.9011 116.461 47.8385C116.447 45.5793 117.854 44.1902 119.514 44.1902C119.918 44.1656 120.322 44.2488 120.683 44.4313C121.044 44.6138 121.35 44.889 121.569 45.2285H121.597V41.1736H122.835ZM121.597 47.1088C121.599 46.9341 121.58 46.7598 121.541 46.5896C121.452 46.1831 121.226 45.8191 120.901 45.5586C120.576 45.2981 120.171 45.1568 119.754 45.1585C118.473 45.1585 117.713 46.2808 117.713 47.7822C117.713 49.1574 118.389 50.294 119.726 50.294C120.151 50.2925 120.564 50.1454 120.894 49.8772C121.225 49.6091 121.453 49.2361 121.541 48.8205C121.582 48.6458 121.6 48.4667 121.597 48.2874V47.1088Z" fill="#676767"/>
<path d="M130.923 49.2837C130.923 49.9851 130.938 50.6025 130.982 51.1357H129.836L129.763 50.0274H129.733C129.485 50.4232 129.138 50.7478 128.726 50.9692C128.314 51.1906 127.852 51.3011 127.384 51.29C126.268 51.29 124.932 50.7008 124.932 48.3154V44.3445H126.224V48.1051C126.224 49.396 126.635 50.2657 127.81 50.2657C128.172 50.264 128.527 50.1569 128.829 49.9576C129.132 49.7583 129.369 49.4753 129.513 49.1434C129.591 48.942 129.631 48.7279 129.631 48.512V44.3445H130.923V49.2837Z" fill="#676767"/>
<path d="M138.132 50.8831C137.488 51.1571 136.792 51.291 136.091 51.2759C133.947 51.2759 132.552 49.8871 132.552 47.8102C132.552 45.7196 134.05 44.2041 136.37 44.2041C136.985 44.1973 137.595 44.3167 138.161 44.555L137.868 45.509C137.403 45.2784 136.888 45.1675 136.37 45.1864C134.74 45.1864 133.859 46.337 133.859 47.7542C133.835 48.0869 133.882 48.4209 133.997 48.7343C134.112 49.0478 134.291 49.3336 134.524 49.5732C134.757 49.8128 135.037 50.0008 135.348 50.125C135.658 50.2492 135.991 50.3067 136.326 50.2939C136.873 50.2966 137.414 50.1817 137.912 49.957L138.132 50.8831Z" fill="#676767"/>
<path d="M144.006 51.1358L143.894 50.2801H143.845C143.547 50.6119 143.179 50.8744 142.768 51.0489C142.357 51.2235 141.912 51.3058 141.466 51.2901C139.89 51.2901 139.086 50.322 139.086 49.3398C139.086 47.698 140.758 46.8 143.765 46.8143V46.6737C143.765 46.1126 143.588 45.1023 141.996 45.1023C141.29 45.102 140.594 45.2755 139.97 45.6074L139.649 44.7937C140.438 44.3842 141.316 44.1768 142.205 44.1903C144.585 44.1903 145.164 45.6075 145.164 46.9686V49.5084C145.154 50.0537 145.197 50.5988 145.293 51.1358L144.006 51.1358ZM143.797 47.67C142.253 47.642 140.501 47.8806 140.501 49.1995C140.501 49.9992 141.112 50.378 141.836 50.378C142.228 50.4017 142.618 50.3056 142.954 50.1025C143.29 49.8995 143.556 49.5991 143.717 49.2415C143.767 49.1163 143.794 48.9833 143.797 48.8486L143.797 47.67Z" fill="#676767"/>
<path d="M148.625 42.2539V44.2379H150.061L150.078 45.1946H148.625V48.9202C148.625 49.7768 148.888 50.262 149.647 50.262C149.913 50.2656 150.178 50.2369 150.436 50.1765L150.498 51.1186C150.109 51.2441 149.7 51.302 149.291 51.2898C149.022 51.3065 148.754 51.2683 148.501 51.1774C148.248 51.0866 148.016 50.9451 147.82 50.7616C147.433 50.3904 147.294 49.7768 147.294 48.9632V45.1946H146.133V44.238H147.294V42.2539L148.625 42.2539Z" fill="#676767"/>
<path d="M152.962 42.4363C152.951 42.6408 152.863 42.8335 152.714 42.9746C152.565 43.1156 152.367 43.1943 152.162 43.1943C151.956 43.1943 151.759 43.1156 151.61 42.9746C151.461 42.8335 151.372 42.6408 151.361 42.4363C151.361 42.3319 151.382 42.2286 151.423 42.1325C151.463 42.0364 151.523 41.9497 151.599 41.8775C151.675 41.8053 151.764 41.7492 151.862 41.7126C151.96 41.676 152.064 41.6596 152.169 41.6645C152.273 41.6586 152.377 41.6744 152.475 41.7109C152.572 41.7473 152.661 41.8036 152.736 41.8762C152.811 41.9488 152.869 42.0361 152.908 42.1325C152.947 42.2289 152.965 42.3324 152.962 42.4363ZM151.523 51.1356V44.1051H152.815V51.1356L151.523 51.1356Z" fill="#676767"/>
<path d="M161.39 47.6839C161.39 50.1957 159.569 51.29 157.851 51.29C155.927 51.29 154.444 49.9431 154.444 47.7962C154.444 45.5234 156.001 44.1902 157.969 44.1902C160.01 44.1902 161.39 45.6073 161.39 47.6839ZM155.751 47.7542C155.751 49.2414 156.647 50.364 157.91 50.364C159.144 50.364 160.069 49.2557 160.069 47.7262C160.069 46.5756 159.467 45.1162 157.939 45.1162C156.412 45.1162 155.751 46.4633 155.751 47.7542Z" fill="#676767"/>
<path d="M163.02 46.1828C163.02 45.4811 163.005 44.906 162.961 44.3445H164.106L164.18 45.4671H164.209C164.451 45.0643 164.796 44.7334 165.209 44.5089C165.622 44.2843 166.088 44.1743 166.559 44.1902C167.543 44.1902 169.07 44.7514 169.07 47.0808V51.1357H167.777V47.2211C167.777 46.1265 167.352 45.2145 166.133 45.2145C165.747 45.2155 165.372 45.3383 165.06 45.5651C164.749 45.792 164.518 46.1114 164.4 46.4774C164.338 46.6627 164.308 46.8572 164.312 47.0525V51.1357H163.02V46.1828Z" fill="#676767"/>
<path d="M174.291 48.5725C174.366 49.0495 174.609 49.484 174.977 49.7972C175.346 50.1105 175.814 50.2818 176.299 50.2802C177.806 50.2802 178.686 49.6302 178.686 48.69C178.686 47.8187 178.077 47.3208 176.536 46.8367C174.673 46.2974 173.522 45.5092 173.522 44.1952C173.522 42.7433 174.995 41.6646 177.213 41.6646C178.381 41.6646 180.038 42.7925 180.098 44.4246L178.957 44.4396C178.892 43.9892 178.681 43.5722 178.357 43.2514C178.034 42.9305 177.614 42.7231 177.162 42.6603C175.609 42.5406 175.012 43.4209 175.012 44.0569C175.012 44.9282 175.706 45.3571 177.281 45.8547C179.211 46.4633 180.193 47.2239 180.193 48.5931C180.193 50.0315 178.889 51.2759 176.197 51.2759C175.096 51.2759 173.285 50.1701 173.285 48.5688L174.291 48.5725Z" fill="#676767"/>
<path d="M182.327 47.9648C182.357 49.6346 183.473 50.322 184.765 50.322C185.438 50.3426 186.108 50.2231 186.733 49.9711L186.953 50.8551C186.202 51.1536 185.397 51.2968 184.589 51.276C182.401 51.276 181.094 49.9011 181.094 47.8525C181.094 45.8039 182.357 44.1902 184.427 44.1902C186.747 44.1902 187.364 46.1405 187.364 47.3894C187.362 47.5819 187.347 47.7741 187.32 47.9648L182.327 47.9648ZM186.116 47.0808C186.131 46.2951 185.778 45.0742 184.324 45.0742C183.017 45.0742 182.445 46.2248 182.342 47.0808H186.116Z" fill="#676767"/>
<path d="M188.965 46.4632C188.965 45.6635 188.95 44.9758 188.906 44.3443H190.037L190.081 45.6775H190.14C190.271 45.2556 190.531 44.8852 190.884 44.6184C191.237 44.3516 191.665 44.2018 192.107 44.1901C192.231 44.1885 192.354 44.2026 192.475 44.2321V45.3969C192.33 45.3667 192.182 45.3525 192.034 45.3546C191.601 45.364 191.187 45.5301 190.868 45.8219C190.549 46.1137 190.348 46.5113 190.301 46.9404C190.265 47.13 190.245 47.3225 190.243 47.5155V51.1356H188.965V46.4632Z" fill="#676767"/>
<path d="M194.633 44.3445L196.028 48.1611C196.25 48.7304 196.441 49.3112 196.6 49.9011H196.644C196.806 49.3397 197.011 48.7785 197.246 48.1611L198.627 44.3445H199.978L197.188 51.1357H195.954L193.252 44.3445H194.633Z" fill="#676767"/>
<path d="M202.635 42.4363C202.624 42.6408 202.535 42.8335 202.386 42.9746C202.237 43.1156 202.04 43.1943 201.835 43.1943C201.629 43.1943 201.432 43.1156 201.283 42.9746C201.134 42.8335 201.045 42.6408 201.034 42.4363C201.034 42.3319 201.055 42.2286 201.095 42.1325C201.136 42.0364 201.196 41.9497 201.272 41.8775C201.347 41.8053 201.437 41.7492 201.535 41.7126C201.633 41.676 201.737 41.6596 201.842 41.6645C201.946 41.6586 202.05 41.6744 202.148 41.7109C202.245 41.7473 202.334 41.8036 202.409 41.8762C202.483 41.9488 202.542 42.0361 202.581 42.1325C202.62 42.2289 202.638 42.3324 202.635 42.4363ZM201.196 51.1356V44.3444H202.488V51.1356L201.196 51.1356Z" fill="#676767"/>
<path d="M209.698 50.8831C209.053 51.1571 208.357 51.291 207.656 51.2759C205.512 51.2759 204.117 49.8871 204.117 47.8102C204.117 45.7196 205.615 44.2041 207.935 44.2041C208.55 44.1973 209.16 44.3167 209.727 44.555L209.433 45.509C208.969 45.2784 208.454 45.1675 207.935 45.1864C206.305 45.1864 205.424 46.337 205.424 47.7542C205.401 48.0869 205.448 48.4209 205.562 48.7343C205.677 49.0478 205.856 49.3336 206.089 49.5732C206.322 49.8128 206.603 50.0008 206.913 50.125C207.224 50.2492 207.557 50.3067 207.891 50.2939C208.438 50.2966 208.979 50.1817 209.477 49.957L209.698 50.8831Z" fill="#676767"/>
<path d="M211.841 47.9648C211.871 49.6346 212.986 50.322 214.279 50.322C214.952 50.3426 215.622 50.2231 216.246 49.9711L216.467 50.8551C215.715 51.1536 214.911 51.2968 214.102 51.276C211.914 51.276 210.607 49.9011 210.607 47.8525C210.607 45.8039 211.871 44.1902 213.941 44.1902C216.261 44.1902 216.878 46.1405 216.878 47.3894C216.876 47.5819 216.861 47.7741 216.834 47.9648L211.841 47.9648ZM215.63 47.0808C215.645 46.2951 215.292 45.0742 213.838 45.0742C212.531 45.0742 211.958 46.2248 211.856 47.0808H215.63Z" fill="#676767"/>
<path d="M218.302 49.8728C218.818 50.1799 219.404 50.349 220.005 50.3639C220.945 50.3639 221.386 49.9151 221.386 49.3536C221.386 48.7645 221.018 48.4416 220.064 48.105C218.786 47.6699 218.184 46.9965 218.184 46.1827C218.184 45.0881 219.109 44.1901 220.637 44.1901C221.245 44.1839 221.846 44.3285 222.384 44.611L222.061 45.509C221.62 45.2506 221.118 45.115 220.607 45.1161C219.844 45.1161 219.418 45.5373 219.418 46.0424C219.418 46.6036 219.844 46.8562 220.769 47.193C222.002 47.6419 222.634 48.2313 222.634 49.2413C222.634 50.4342 221.665 51.2759 219.976 51.2759C219.282 51.2887 218.596 51.1297 217.979 50.8131L218.302 49.8728Z" fill="#676767"/>
<path d="M159.413 10.7722V32.8134H164.715V24.0689H173.372V20.1158H164.658V14.7652H174.22V10.7722H159.413Z" fill="#E83A41"/>
<path d="M191.611 24.6175C191.214 19.7708 189.551 16.2417 183.646 16.2417C177.683 16.2417 175.969 19.7645 175.671 24.6175C175.339 30.0802 179.239 33.4261 183.639 33.4261C188.043 33.4261 192.038 29.8907 191.611 24.6175ZM183.551 29.3472C181.342 29.3472 180.68 27.2872 180.68 24.7439C180.68 22.2036 181.254 20.1437 183.551 20.1437C185.866 20.1437 186.421 22.2036 186.421 24.7439C186.421 27.2872 185.803 29.3472 183.551 29.3472Z" fill="#E83A41"/>
<path d="M239.969 24.6175C239.573 19.7708 237.91 16.2417 232.004 16.2417C226.041 16.2417 224.327 19.7645 224.03 24.6175C223.697 30.0802 227.597 33.4261 231.998 33.4261C236.401 33.4261 240.397 29.8907 239.969 24.6175ZM231.909 29.3472C229.701 29.3472 229.039 27.2872 229.039 24.7439C229.039 22.2036 229.612 20.1437 231.909 20.1437C234.225 20.1437 234.779 22.2036 234.779 24.7439C234.779 27.2872 234.162 29.3472 231.909 29.3472Z" fill="white"/>
</svg>
