<svg width="257" height="61" viewBox="0 0 257 61" fill="none" xmlns="http://www.w3.org/2000/svg">
<path d="M30.5842 61C47.4754 61 61.1685 47.3447 61.1685 30.5C61.1685 13.6553 47.4754 0 30.5842 0C13.693 0 0 13.6553 0 30.5C0 47.3447 13.693 61 30.5842 61Z" fill="#E83A41"/>
<path d="M30.6642 48.2877C40.4187 48.2877 48.3264 40.4018 48.3264 30.6741C48.3264 20.9464 40.4187 13.0605 30.6642 13.0605C20.9096 13.0605 13.002 20.9464 13.002 30.6741C13.002 40.4018 20.9096 48.2877 30.6642 48.2877Z" fill="#FDFDFD"/>
<path d="M24.1582 16.8168C23.1009 18.2485 21.5503 22.3854 21.5724 22.442H17.9033C19.3639 20.429 20.991 18.482 24.1582 16.8168Z" fill="#E83A41"/>
<path d="M24.1582 44.3522C23.1009 42.9205 21.5503 38.7836 21.5724 38.7271H17.9033C19.3639 40.7401 20.991 42.6871 24.1582 44.3522Z" fill="#E83A41"/>
<path d="M37.167 44.3522C38.2243 42.9205 39.7749 38.7836 39.7528 38.7271H43.4219C41.9613 40.7401 40.3342 42.6871 37.167 44.3522Z" fill="#E83A41"/>
<path d="M37.167 16.8168C38.2243 18.2485 39.7749 22.3854 39.7528 22.442H43.4219C41.9613 20.429 40.3342 18.482 37.167 16.8168Z" fill="#E83A41"/>
<path d="M29.3813 15.5374V22.369C27.5778 22.4224 25.7742 22.3885 23.9707 22.442C25.8093 17.7075 27.3576 16.6459 29.3813 15.5374Z" fill="#E83A41"/>
<path d="M31.7559 15.5374V22.369C33.5594 22.4224 35.3629 22.3885 37.1665 22.442C35.3279 17.7075 33.7796 16.6459 31.7559 15.5374Z" fill="#E83A41"/>
<path d="M31.7666 45.6246V38.793C33.5701 38.7396 35.3737 38.7735 37.1772 38.72C35.3386 43.4545 33.7904 44.5161 31.7666 45.6246Z" fill="#E83A41"/>
<path d="M29.3813 45.6246V38.793C27.5778 38.7396 25.7742 38.7735 23.9707 38.72C25.8093 43.4545 27.3576 44.5161 29.3813 45.6246Z" fill="#E83A41"/>
<path d="M23.0035 24.8339C25.1208 24.8339 27.2637 24.9078 29.381 24.9078V29.2752H22.4805C22.5547 27.7848 22.7294 26.301 23.0035 24.8339Z" fill="#E83A41"/>
<path d="M23.0035 36.4574C25.1208 36.4574 27.2637 36.3835 29.381 36.3835V32.016H22.4805C22.5547 33.5065 22.7294 34.9903 23.0035 36.4574Z" fill="#E83A41"/>
<path d="M38.1441 36.4574C36.0268 36.4574 33.8839 36.3835 31.7666 36.3835V32.016H38.6671C38.593 33.5065 38.4182 34.9903 38.1441 36.4574Z" fill="#E83A41"/>
<path d="M38.1441 24.8339C36.0268 24.8339 33.8839 24.9078 31.7666 24.9078V29.2752H38.6671C38.593 27.7848 38.4182 26.301 38.1441 24.8339Z" fill="#E83A41"/>
<path d="M16.6504 24.7443C16.0866 26.1769 15.7299 27.6822 15.5908 29.2149H20.0786C20.147 27.7357 20.3486 26.2656 20.6811 24.8224C19.3375 24.774 17.994 24.7926 16.6504 24.7443Z" fill="#E83A41"/>
<path d="M44.7699 24.7443C45.3337 26.1769 45.6905 27.6822 45.8295 29.2149H41.3417C41.2734 27.7357 41.0717 26.2656 40.7393 24.8224C42.0828 24.774 43.4264 24.7926 44.7699 24.7443Z" fill="#E83A41"/>
<path d="M44.7699 36.472C45.3337 35.0394 45.6905 33.5341 45.8295 32.0014H41.3417C41.2734 33.4806 41.0717 34.9507 40.7393 36.3939C42.0828 36.4423 43.4264 36.4237 44.7699 36.472Z" fill="#E83A41"/>
<path d="M16.6504 36.472C16.0866 35.0394 15.7299 33.5341 15.5908 32.0014H20.0786C20.147 33.4806 20.3486 34.9507 20.6811 36.3939C19.3375 36.4423 17.994 36.4237 16.6504 36.472Z" fill="#E83A41"/>
<path d="M76.1582 25.6925H81.152C81.2232 25.7721 81.3083 25.8228 81.3202 25.8869C81.8037 28.4788 84.2745 29.7949 86.7963 28.7988C87.1671 28.6758 87.4966 28.4531 87.7484 28.1551C88.0002 27.8571 88.1646 27.4956 88.2233 27.1103C88.2821 26.7251 88.2329 26.3311 88.0813 25.972C87.9297 25.6128 87.6815 25.3025 87.3641 25.0751C86.5206 24.456 85.4579 24.1268 84.489 23.6775C82.8344 22.9103 81.0905 22.2897 79.5408 21.3537C77.5801 20.1695 76.4609 18.3483 76.7419 15.9798C77.0365 13.4966 78.5618 11.9241 80.8769 11.0793C84.0871 9.90784 87.2861 9.87169 90.3886 11.4167C92.6694 12.5525 93.6378 14.532 93.8625 17.1478C92.1965 17.1478 90.6125 17.1752 89.0319 17.1163C88.8119 17.1081 88.4967 16.7072 88.4162 16.4333C88.2857 15.9093 87.9982 15.4373 87.592 15.0804C87.1858 14.7234 86.6801 14.4984 86.1424 14.4354C84.8399 14.2201 83.5691 14.3362 82.6134 15.3878C81.8136 16.2679 81.8652 17.244 82.8233 17.9512C83.538 18.4488 84.3059 18.8658 85.1127 19.1948C86.5332 19.8165 88.0021 20.3303 89.4205 20.9564C92.5632 22.3438 94.029 24.8395 93.6356 28.0339C93.3241 30.5633 91.1967 32.5807 88.0123 33.0411C84.8745 33.4948 81.7766 33.2819 79.0526 31.3977C77.1134 30.0564 76.2665 28.1348 76.1582 25.6925Z" fill="#1D1D1B"/>
<path d="M134.703 17.4887V9.3514H139.818V32.7874C138.472 32.8421 137.124 32.8222 135.78 32.7277C135.43 32.6883 135.163 31.917 134.84 31.4558C134.098 31.8701 133.245 32.5665 132.269 32.8486C129.369 33.6869 126.505 32.245 125.303 29.2989C124.666 27.8029 124.333 26.1959 124.323 24.5708C124.314 22.9457 124.627 21.3347 125.245 19.8312C126.823 15.9308 130.957 14.8975 134.317 17.446C134.366 17.4835 134.459 17.4643 134.703 17.4887ZM134.601 24.6427C134.601 23.9334 134.605 23.2241 134.601 22.5148C134.645 21.9403 134.466 21.3708 134.102 20.9233C133.738 20.4759 133.216 20.1846 132.643 20.1093C131.344 19.8556 130.305 20.3433 129.9 21.6032C129.257 23.5674 129.27 25.6862 129.935 27.6428C130.139 28.1659 130.521 28.6014 131.013 28.874C131.505 29.1466 132.077 29.2392 132.63 29.1358C133.184 29.0323 133.683 28.7393 134.043 28.3075C134.403 27.8756 134.6 27.332 134.601 26.7706C134.605 26.0613 134.601 25.352 134.601 24.6427H134.601Z" fill="#1D1D1B"/>
<path d="M143.546 39.0133V35.5531C143.902 35.51 144.238 35.4623 144.577 35.4293C146.518 35.2404 147.409 33.8681 146.774 32.0289C145.139 27.2934 143.502 22.5583 141.864 17.8237C141.711 17.3797 141.586 16.9261 141.384 16.2687C143.141 16.2687 144.79 16.2353 146.434 16.3084C146.655 16.3182 146.948 16.8382 147.043 17.1683C147.817 19.8462 148.552 22.5353 149.533 25.2547C149.69 24.747 149.849 24.2397 150.005 23.7314C150.686 21.5064 151.41 19.2928 152.023 17.0495C152.237 16.2684 152.605 16.0763 153.356 16.1042C154.781 16.1571 156.209 16.1195 157.782 16.1195C157.218 17.7422 156.705 19.2269 156.188 20.7105C154.502 25.554 152.839 30.4056 151.119 35.2374C149.895 38.6788 147.167 40.0362 143.546 39.0133Z" fill="#1D1D1B"/>
<path d="M107.192 16.3187H112.302C112.302 17.244 112.302 18.1008 112.302 18.9576C112.303 21.6002 112.303 24.2428 112.304 26.8853C112.303 27.7515 112.423 28.5909 113.353 28.9538C113.832 29.164 114.36 29.2337 114.877 29.1546C115.394 29.0755 115.877 28.851 116.271 28.5073C116.555 28.1532 116.698 27.7066 116.672 27.2536C116.704 24.0592 116.689 20.8643 116.689 17.6695C116.689 17.2467 116.689 16.8238 116.689 16.3247H121.845V32.7247H117.223C117.134 32.2869 117.043 31.8426 116.979 31.5302C115.828 32.0165 114.741 32.701 113.563 32.9305C110.183 33.5889 107.486 31.8485 107.258 28.5321C106.98 24.5013 107.192 20.4375 107.192 16.3187Z" fill="#1D1D1B"/>
<path d="M204.37 10.5677C206.251 10.5677 207.921 10.5268 209.585 10.606C209.878 10.62 210.259 11.0867 210.411 11.4268C211.501 13.8785 212.542 16.3518 213.601 18.8172C213.754 19.1731 213.92 19.5235 214.16 20.0538C214.374 19.6626 214.53 19.4247 214.641 19.1678C215.749 16.5946 216.873 14.0276 217.937 11.4365C218.008 11.1535 218.181 10.9066 218.423 10.7425C218.665 10.5784 218.959 10.5086 219.249 10.5463C220.799 10.5929 222.35 10.5607 224.134 10.5607C223.896 11.0819 223.743 11.4532 223.562 11.8102C221.539 15.788 219.489 19.7527 217.507 23.7505C217.177 24.4538 216.995 25.2171 216.972 25.9934C216.898 27.9243 216.917 29.8604 216.962 31.793C216.98 32.5692 216.714 32.8371 215.933 32.8116C214.506 32.7649 213.076 32.7983 211.479 32.7983C211.479 30.8098 211.407 28.9262 211.501 27.0506C211.562 25.5946 211.22 24.1498 210.513 22.8747C208.619 19.2305 206.815 15.5405 204.978 11.8673C204.804 11.5201 204.648 11.1641 204.37 10.5677Z" fill="#1D1D1B"/>
<path d="M242.329 16.3194H247.405C247.423 16.7257 247.456 17.1385 247.457 17.5513C247.462 20.5894 247.45 23.6276 247.463 26.6656C247.473 28.8601 249.01 29.8025 250.978 28.8397C251.311 28.713 251.595 28.4828 251.786 28.1832C251.978 27.8836 252.068 27.5305 252.043 27.176C251.998 24.0202 252.025 20.8633 252.025 17.7069V16.3368H257V32.7265H252.369C252.294 32.2729 252.222 31.8293 252.167 31.4948C251.051 31.9878 250.005 32.6855 248.862 32.9114C245.254 33.6248 242.602 31.7924 242.383 28.1841C242.145 24.2661 242.329 20.323 242.329 16.3194Z" fill="#1D1D1B"/>
<path d="M105.072 16.3148V19.7515H102.382C102.382 21.4744 102.382 23.0778 102.383 24.6812C102.383 25.6289 102.364 26.5772 102.393 27.5241C102.432 28.8532 102.844 29.1802 104.188 29.0238C104.499 28.9876 104.813 28.9797 105.279 28.9485C105.279 29.6707 105.28 30.328 105.279 30.9853C105.278 32.7406 105.278 32.7471 103.546 32.8989C103.069 32.9401 102.589 32.9543 102.11 32.9411C98.6806 32.8502 97.248 31.4349 97.2129 28.0513C97.185 25.3687 97.2073 22.6857 97.2073 19.8851L95.1631 19.665V16.3326L97.1514 16.1687V12.2192H102.352V16.1651L105.072 16.3148Z" fill="#1D1D1B"/>
<path d="M198.426 16.3648C198.557 17.0734 198.66 17.6281 198.825 18.5208C199.867 16.7804 201.168 16.1187 202.872 16.165C203.609 16.185 203.973 16.3593 203.93 17.1782C203.868 18.3492 203.914 19.5257 203.914 20.6631C202.677 20.7934 201.645 20.8233 200.649 21.0276C199.498 21.2637 198.952 21.9905 198.977 23.2409C199.039 26.3156 198.997 29.3923 198.997 32.5767H194.001C193.971 32.1874 193.916 31.803 193.915 31.4186C193.909 26.8383 193.94 22.2577 193.889 17.6779C193.877 16.6465 194.16 16.2535 195.233 16.3457C196.259 16.434 197.3 16.3648 198.426 16.3648Z" fill="#E83A41"/>
<path d="M80.883 51.1355V47.1227L77.7549 41.6786H79.2087L80.604 44.2883C80.9856 45.0038 81.2795 45.5792 81.5878 46.2386H81.6171C81.8961 45.6212 82.234 45.0038 82.6159 44.2883L84.0401 41.6786H85.494L82.1751 47.1087V51.1355H80.883Z" fill="#676767"/>
<path d="M91.8953 47.6838C91.8953 50.1955 90.0742 51.2898 88.3563 51.2898C86.4324 51.2898 84.9492 49.943 84.9492 47.7961C84.9492 45.5232 86.5059 44.1901 88.4735 44.1901C90.515 44.1901 91.8953 45.6072 91.8953 47.6838ZM86.2563 47.7541C86.2563 49.2412 87.1521 50.3638 88.4149 50.3638C89.6484 50.3638 90.5736 49.2555 90.5736 47.7261C90.5736 46.5755 89.9717 45.1161 88.4442 45.1161C86.9171 45.1161 86.2563 46.4632 86.2563 47.7541Z" fill="#676767"/>
<path d="M99.4727 49.2835C99.4727 49.985 99.4874 50.6024 99.5316 51.1356H98.3861L98.3128 50.0273H98.2832C98.0353 50.4231 97.6882 50.7477 97.2763 50.9691C96.8643 51.1905 96.4016 51.301 95.9337 51.2898C94.8178 51.2898 93.4814 50.7007 93.4814 48.3153V44.3444H94.7735V48.105C94.7735 49.3958 95.1847 50.2656 96.3596 50.2656C96.7222 50.2638 97.0764 50.1568 97.379 49.9575C97.6815 49.7581 97.9193 49.4752 98.0631 49.1433C98.1412 48.9419 98.181 48.7278 98.1806 48.5118V44.3444H99.4727V49.2835Z" fill="#676767"/>
<path d="M101.615 46.4632C101.615 45.6635 101.601 44.9758 101.557 44.3443H102.687L102.731 45.6775H102.79C102.921 45.2556 103.181 44.8852 103.534 44.6184C103.887 44.3516 104.315 44.2018 104.758 44.19C104.881 44.1885 105.005 44.2026 105.125 44.232V45.3969C104.98 45.3667 104.832 45.3525 104.684 45.3546C104.252 45.364 103.837 45.5301 103.518 45.8219C103.2 46.1137 102.998 46.5113 102.952 46.9404C102.915 47.13 102.896 47.3225 102.893 47.5155V51.1356H101.615L101.615 46.4632Z" fill="#676767"/>
<path d="M115.17 46.7018H110.969V50.1113H115.651V51.1355H109.573V41.6786H115.411V42.7029H110.969V45.6915H115.17L115.17 46.7018Z" fill="#676767"/>
<path d="M122.835 41.1735V49.3818C122.835 49.985 122.849 50.6727 122.891 51.1356H121.78L121.723 49.957H121.695C121.473 50.3744 121.138 50.7209 120.727 50.9567C120.316 51.1924 119.847 51.3079 119.374 51.2898C117.727 51.2898 116.461 49.901 116.461 47.8384C116.447 45.5792 117.854 44.1901 119.514 44.1901C119.918 44.1654 120.322 44.2487 120.683 44.4312C121.044 44.6137 121.35 44.8888 121.569 45.2284H121.597V41.1735H122.835ZM121.597 47.1087C121.599 46.934 121.58 46.7597 121.541 46.5895C121.452 46.1829 121.226 45.819 120.901 45.5585C120.576 45.298 120.171 45.1567 119.754 45.1584C118.473 45.1584 117.713 46.2807 117.713 47.7821C117.713 49.1573 118.389 50.2938 119.726 50.2938C120.151 50.2923 120.564 50.1453 120.894 49.8771C121.225 49.609 121.453 49.236 121.541 48.8204C121.582 48.6457 121.6 48.4666 121.597 48.2872V47.1087Z" fill="#676767"/>
<path d="M130.923 49.2835C130.923 49.985 130.938 50.6024 130.982 51.1356H129.836L129.763 50.0273H129.733C129.485 50.4231 129.138 50.7477 128.726 50.9691C128.314 51.1905 127.852 51.301 127.384 51.2898C126.268 51.2898 124.932 50.7007 124.932 48.3153V44.3444H126.224V48.105C126.224 49.3958 126.635 50.2656 127.81 50.2656C128.172 50.2638 128.527 50.1568 128.829 49.9575C129.132 49.7581 129.369 49.4752 129.513 49.1433C129.591 48.9419 129.631 48.7278 129.631 48.5118V44.3444H130.923V49.2835Z" fill="#676767"/>
<path d="M138.132 50.883C137.488 51.157 136.792 51.291 136.091 51.2758C133.947 51.2758 132.552 49.887 132.552 47.8101C132.552 45.7195 134.05 44.2041 136.37 44.2041C136.985 44.1972 137.595 44.3166 138.161 44.5549L137.868 45.5089C137.403 45.2783 136.888 45.1674 136.37 45.1863C134.74 45.1863 133.859 46.3369 133.859 47.7541C133.835 48.0869 133.882 48.4208 133.997 48.7343C134.112 49.0477 134.291 49.3335 134.524 49.5731C134.757 49.8127 135.037 50.0008 135.348 50.1249C135.658 50.2491 135.991 50.3067 136.326 50.2938C136.873 50.2965 137.414 50.1816 137.912 49.957L138.132 50.883Z" fill="#676767"/>
<path d="M144.006 51.1356L143.894 50.2798H143.845C143.547 50.6117 143.179 50.8742 142.768 51.0487C142.357 51.2233 141.912 51.3056 141.466 51.2898C139.89 51.2898 139.086 50.3218 139.086 49.3395C139.086 47.6978 140.758 46.7998 143.765 46.8141V46.6735C143.765 46.1124 143.588 45.1021 141.996 45.1021C141.29 45.1018 140.594 45.2753 139.97 45.6072L139.649 44.7935C140.438 44.384 141.316 44.1766 142.205 44.1901C144.585 44.1901 145.164 45.6073 145.164 46.9684V49.5082C145.154 50.0535 145.197 50.5986 145.293 51.1356L144.006 51.1356ZM143.797 47.6698C142.253 47.6418 140.501 47.8804 140.501 49.1993C140.501 49.999 141.112 50.3778 141.836 50.3778C142.228 50.4015 142.618 50.3054 142.954 50.1023C143.29 49.8993 143.556 49.5989 143.717 49.2412C143.767 49.1161 143.794 48.9831 143.797 48.8484L143.797 47.6698Z" fill="#676767"/>
<path d="M148.625 42.2539V44.2379H150.061L150.078 45.1946H148.625V48.9202C148.625 49.7768 148.888 50.262 149.647 50.262C149.913 50.2656 150.178 50.2369 150.436 50.1765L150.498 51.1186C150.109 51.2441 149.7 51.302 149.291 51.2898C149.022 51.3065 148.754 51.2683 148.501 51.1774C148.248 51.0866 148.016 50.9451 147.82 50.7617C147.433 50.3905 147.294 49.7768 147.294 48.9632V45.1946H146.133V44.238H147.294V42.254L148.625 42.2539Z" fill="#676767"/>
<path d="M152.962 42.4362C152.951 42.6407 152.863 42.8334 152.714 42.9745C152.565 43.1155 152.367 43.1942 152.162 43.1942C151.956 43.1942 151.759 43.1155 151.61 42.9745C151.461 42.8334 151.372 42.6407 151.361 42.4362C151.361 42.3318 151.382 42.2285 151.423 42.1324C151.463 42.0363 151.523 41.9496 151.599 41.8774C151.675 41.8052 151.764 41.7491 151.862 41.7125C151.96 41.6759 152.064 41.6595 152.169 41.6645C152.273 41.6586 152.377 41.6743 152.475 41.7108C152.572 41.7472 152.661 41.8035 152.736 41.8761C152.811 41.9487 152.869 42.036 152.908 42.1324C152.947 42.2288 152.965 42.3323 152.962 42.4362ZM151.523 51.1356V44.1051H152.815V51.1355L151.523 51.1356Z" fill="#676767"/>
<path d="M161.39 47.6838C161.39 50.1955 159.569 51.2898 157.851 51.2898C155.927 51.2898 154.444 49.943 154.444 47.7961C154.444 45.5232 156.001 44.1901 157.969 44.1901C160.01 44.1901 161.39 45.6072 161.39 47.6838ZM155.751 47.7541C155.751 49.2412 156.647 50.3638 157.91 50.3638C159.144 50.3638 160.069 49.2555 160.069 47.7261C160.069 46.5755 159.467 45.1161 157.939 45.1161C156.412 45.1161 155.751 46.4632 155.751 47.7541Z" fill="#676767"/>
<path d="M163.02 46.1827C163.02 45.4809 163.005 44.9058 162.961 44.3444H164.106L164.18 45.4669H164.209C164.451 45.0642 164.796 44.7333 165.209 44.5087C165.622 44.2841 166.088 44.1741 166.559 44.1901C167.543 44.1901 169.07 44.7512 169.07 47.0807V51.1356H167.777V47.221C167.777 46.1264 167.352 45.2144 166.133 45.2144C165.747 45.2154 165.372 45.3381 165.06 45.565C164.749 45.7918 164.518 46.1112 164.4 46.4772C164.338 46.6625 164.308 46.8571 164.312 47.0524V51.1356H163.02V46.1827Z" fill="#676767"/>
<path d="M174.291 48.5724C174.366 49.0494 174.609 49.4839 174.977 49.7971C175.346 50.1104 175.814 50.2817 176.299 50.2801C177.806 50.2801 178.686 49.6301 178.686 48.6899C178.686 47.8186 178.077 47.3207 176.536 46.8366C174.673 46.2973 173.522 45.5091 173.522 44.1951C173.522 42.7432 174.995 41.6644 177.213 41.6644C178.381 41.6644 180.038 42.7924 180.098 44.4245L178.957 44.4395C178.892 43.9891 178.681 43.5721 178.357 43.2513C178.034 42.9304 177.614 42.723 177.162 42.6602C175.609 42.5405 175.012 43.4208 175.012 44.0568C175.012 44.9281 175.706 45.357 177.281 45.8546C179.211 46.4632 180.193 47.2238 180.193 48.593C180.193 50.0314 178.889 51.2758 176.197 51.2758C175.096 51.2758 173.285 50.17 173.285 48.5687L174.291 48.5724Z" fill="#676767"/>
<path d="M182.327 47.9647C182.357 49.6344 183.473 50.3218 184.765 50.3218C185.438 50.3425 186.108 50.223 186.733 49.9709L186.953 50.855C186.202 51.1534 185.397 51.2966 184.589 51.2758C182.401 51.2758 181.094 49.901 181.094 47.8524C181.094 45.8038 182.357 44.19 184.427 44.19C186.747 44.19 187.364 46.1403 187.364 47.3892C187.362 47.5818 187.347 47.774 187.32 47.9647L182.327 47.9647ZM186.116 47.0807C186.131 46.295 185.778 45.0741 184.324 45.0741C183.017 45.0741 182.445 46.2247 182.342 47.0807H186.116Z" fill="#676767"/>
<path d="M188.965 46.4632C188.965 45.6635 188.95 44.9758 188.906 44.3443H190.037L190.081 45.6775H190.14C190.271 45.2556 190.531 44.8852 190.884 44.6184C191.237 44.3516 191.665 44.2018 192.107 44.19C192.231 44.1885 192.354 44.2026 192.475 44.232V45.3969C192.33 45.3667 192.182 45.3525 192.034 45.3546C191.601 45.364 191.187 45.5301 190.868 45.8219C190.549 46.1137 190.348 46.5113 190.301 46.9404C190.265 47.13 190.245 47.3225 190.243 47.5155V51.1355H188.965V46.4632Z" fill="#676767"/>
<path d="M194.633 44.3443L196.028 48.161C196.25 48.7302 196.441 49.3111 196.6 49.901H196.644C196.806 49.3395 197.011 48.7784 197.246 48.161L198.627 44.3443H199.978L197.188 51.1356H195.954L193.252 44.3443H194.633Z" fill="#676767"/>
<path d="M202.635 42.4362C202.624 42.6407 202.535 42.8334 202.386 42.9745C202.237 43.1155 202.04 43.1942 201.835 43.1942C201.629 43.1942 201.432 43.1155 201.283 42.9745C201.134 42.8334 201.045 42.6407 201.034 42.4362C201.034 42.3318 201.055 42.2285 201.095 42.1324C201.136 42.0363 201.196 41.9496 201.272 41.8774C201.347 41.8052 201.437 41.7491 201.535 41.7125C201.633 41.6759 201.737 41.6595 201.842 41.6645C201.946 41.6586 202.05 41.6743 202.148 41.7108C202.245 41.7472 202.334 41.8035 202.409 41.8761C202.483 41.9487 202.542 42.036 202.581 42.1324C202.62 42.2288 202.638 42.3323 202.635 42.4362ZM201.196 51.1356V44.3443H202.488V51.1355L201.196 51.1356Z" fill="#676767"/>
<path d="M209.698 50.883C209.053 51.157 208.357 51.291 207.656 51.2758C205.512 51.2758 204.117 49.887 204.117 47.8101C204.117 45.7195 205.615 44.2041 207.935 44.2041C208.55 44.1972 209.16 44.3166 209.727 44.5549L209.433 45.5089C208.969 45.2783 208.454 45.1674 207.935 45.1863C206.305 45.1863 205.424 46.3369 205.424 47.7541C205.401 48.0869 205.448 48.4208 205.562 48.7343C205.677 49.0477 205.856 49.3335 206.089 49.5731C206.322 49.8127 206.603 50.0008 206.913 50.1249C207.224 50.2491 207.557 50.3067 207.891 50.2938C208.438 50.2965 208.979 50.1816 209.477 49.957L209.698 50.883Z" fill="#676767"/>
<path d="M211.841 47.9647C211.871 49.6344 212.986 50.3218 214.279 50.3218C214.952 50.3425 215.622 50.223 216.246 49.9709L216.467 50.855C215.715 51.1534 214.911 51.2966 214.102 51.2758C211.914 51.2758 210.607 49.901 210.607 47.8524C210.607 45.8038 211.871 44.19 213.941 44.19C216.261 44.19 216.878 46.1403 216.878 47.3892C216.876 47.5818 216.861 47.774 216.834 47.9647L211.841 47.9647ZM215.63 47.0807C215.645 46.295 215.292 45.0741 213.838 45.0741C212.531 45.0741 211.958 46.2247 211.856 47.0807H215.63Z" fill="#676767"/>
<path d="M218.302 49.8727C218.818 50.1798 219.404 50.3489 220.005 50.3638C220.945 50.3638 221.386 49.915 221.386 49.3535C221.386 48.7644 221.018 48.4415 220.064 48.105C218.786 47.6698 218.184 46.9964 218.184 46.1826C218.184 45.0881 219.109 44.1901 220.637 44.1901C221.245 44.1838 221.846 44.3284 222.384 44.6109L222.061 45.5089C221.62 45.2505 221.118 45.1149 220.607 45.1161C219.844 45.1161 219.418 45.5372 219.418 46.0424C219.418 46.6035 219.844 46.8561 220.769 47.1929C222.002 47.6418 222.634 48.2312 222.634 49.2412C222.634 50.4341 221.665 51.2758 219.976 51.2758C219.282 51.2886 218.596 51.1296 217.979 50.813L218.302 49.8727Z" fill="#676767"/>
<path d="M159.413 10.7721V32.8133H164.715V24.0688H173.372V20.1157H164.658V14.7651H174.22V10.7721H159.413Z" fill="#E83A41"/>
<path d="M191.611 24.6175C191.214 19.7708 189.551 16.2417 183.646 16.2417C177.683 16.2417 175.969 19.7645 175.671 24.6175C175.339 30.0802 179.239 33.4261 183.639 33.4261C188.043 33.4261 192.038 29.8907 191.611 24.6175ZM183.551 29.3472C181.342 29.3472 180.68 27.2872 180.68 24.7439C180.68 22.2036 181.254 20.1437 183.551 20.1437C185.866 20.1437 186.421 22.2036 186.421 24.7439C186.421 27.2872 185.803 29.3472 183.551 29.3472Z" fill="#E83A41"/>
<path d="M239.969 24.6175C239.573 19.7708 237.91 16.2417 232.004 16.2417C226.041 16.2417 224.327 19.7645 224.03 24.6175C223.697 30.0802 227.597 33.4261 231.998 33.4261C236.401 33.4261 240.397 29.8907 239.969 24.6175ZM231.909 29.3472C229.701 29.3472 229.039 27.2872 229.039 24.7439C229.039 22.2036 229.612 20.1437 231.909 20.1437C234.225 20.1437 234.779 22.2036 234.779 24.7439C234.779 27.2872 234.162 29.3472 231.909 29.3472Z" fill="#1D1D1B"/>
</svg>
