<svg width="49" height="52" viewBox="0 0 49 52" fill="none" xmlns="http://www.w3.org/2000/svg">
<path d="M42.4638 45.0031C42.465 45.0009 42.4661 44.9986 42.4672 44.9969L48.101 33.5817C48.1032 33.5789 48.1038 33.5755 48.1055 33.5721C48.1173 33.5466 48.1274 33.52 48.1358 33.4939C48.1386 33.4826 48.1414 33.4719 48.1436 33.46C48.1481 33.4407 48.1515 33.4209 48.1537 33.4011C48.156 33.3892 48.1571 33.3768 48.1577 33.3649C48.1582 33.3411 48.1577 33.3179 48.156 33.2947C48.1549 33.2845 48.1549 33.276 48.1537 33.2658C48.1493 33.2364 48.1425 33.2081 48.1341 33.1804C48.133 33.1758 48.133 33.1713 48.1307 33.1673L42.4767 16.1685C42.4313 16.0326 42.3341 15.92 42.2067 15.856C42.0793 15.792 41.9322 15.7819 41.7974 15.8277L36.2653 17.6991C35.8448 16.1606 34.7292 15.2628 34.1723 14.8977L34.8258 6.41692L36.5044 5.90067C36.6656 5.85143 36.7952 5.72803 36.8519 5.56783L37.3954 4.05927C37.4959 3.77794 37.3522 3.46773 37.0731 3.36528L33.8821 2.19862C33.8815 2.19862 33.8815 2.19862 33.8809 2.19862L30.6899 1.03253C30.4109 0.93064 30.1032 1.07612 30.0016 1.35688L29.4593 2.86545C29.4014 3.02621 29.4222 3.20451 29.5148 3.34659L30.4765 4.82798L25.5861 11.764C24.539 11.6485 21.5596 11.6587 20.2818 15.2118C20.233 15.3471 20.2397 15.496 20.3004 15.6262C20.3604 15.7558 20.4699 15.8566 20.6035 15.9058L24.9185 17.4829L24.8596 18.6756L12.7527 13.1655C12.623 13.1066 12.4748 13.1021 12.3418 13.1525C12.2087 13.2034 12.1009 13.3059 12.0425 13.4367L1.04783 37.9964C0.925442 38.2693 1.04614 38.5897 1.31618 38.7125L17.5236 46.0894C17.5259 46.0905 17.5281 46.0917 17.5303 46.0928C17.5326 46.0934 17.5354 46.0945 17.5382 46.0951C17.6056 46.124 17.6758 46.1375 17.7443 46.1375C17.7751 46.1375 17.8043 46.1341 17.8341 46.129C17.8403 46.1279 17.8459 46.1268 17.852 46.1251C17.8762 46.12 17.8992 46.1132 17.9228 46.1058C17.9261 46.1041 17.9301 46.1036 17.9346 46.1024L22.5303 44.3505L24.6188 50.6304C24.694 50.8574 24.9039 51 25.1279 51C25.1847 51 25.2419 50.9904 25.2992 50.9717L42.1579 45.2715C42.1646 45.2686 42.1696 45.2647 42.1764 45.2624C42.1972 45.2545 42.2174 45.246 42.237 45.2341C42.2466 45.2296 42.2555 45.225 42.264 45.2205C42.2887 45.2058 42.3122 45.1882 42.3341 45.1696C42.3426 45.1628 42.3493 45.1554 42.3572 45.1475C42.3718 45.1328 42.3864 45.1175 42.3998 45.1011C42.4066 45.0926 42.4133 45.0852 42.4195 45.0762C42.4358 45.0524 42.4504 45.0286 42.4638 45.0031ZM42.0832 43.3451L39.8224 36.5473L46.5633 34.2689L42.0832 43.3451ZM25.7073 12.874C25.9212 12.9255 26.1424 12.8406 26.2693 12.6612L31.564 5.1529C31.692 4.97176 31.6959 4.72892 31.5758 4.54325L30.5602 2.97922L30.8285 2.23428L33.516 3.21584L36.2013 4.19739L35.9335 4.94232L34.1616 5.48745C33.95 5.55198 33.7995 5.74104 33.7827 5.96294L33.0748 15.149C33.0579 15.3675 33.1753 15.5752 33.3689 15.6749C33.4391 15.7105 35.0863 16.5726 35.3266 18.4758C35.3906 18.979 35.3485 19.5196 35.2014 20.089L28.3493 17.5842L21.4967 15.0794C22.8273 12.2434 25.5861 12.8457 25.7073 12.874ZM27.9839 18.602L29.9937 19.3367L29.4289 20.0924C29.4222 20.0998 29.4172 20.1071 29.411 20.1151L25.6096 25.2057L25.892 19.5133C25.892 19.51 25.8932 19.5071 25.8932 19.5037L25.9746 17.8672L27.9839 18.602ZM12.7999 14.3741L24.8007 19.836L24.4492 26.9152C24.4486 26.9237 24.4486 26.9327 24.4486 26.9418V26.9429C24.4486 26.9457 24.4492 26.9474 24.4492 26.9503C24.4492 26.9803 24.4526 27.0097 24.4582 27.0391C24.4588 27.0448 24.4587 27.0505 24.4599 27.055C24.4666 27.0878 24.4762 27.1184 24.4885 27.1495C24.4891 27.1507 24.4896 27.1523 24.4902 27.1546C24.5166 27.2157 24.5542 27.2746 24.6047 27.3256C24.6103 27.3312 24.6165 27.3352 24.6216 27.3397C24.6423 27.3578 24.6631 27.3765 24.6867 27.3924C24.7018 27.4026 24.7181 27.4099 24.7338 27.419C24.749 27.4269 24.763 27.4359 24.7793 27.4427C24.7967 27.4501 24.8147 27.4546 24.8327 27.4592C24.8484 27.4643 24.8635 27.4699 24.8792 27.4733C24.9051 27.4784 24.9309 27.4795 24.9562 27.4807C24.9663 27.4818 24.9753 27.4841 24.9848 27.4841C25.1325 27.4841 25.2649 27.4241 25.3621 27.3273C25.3626 27.3267 25.3638 27.3261 25.3649 27.3244C25.3823 27.3075 25.3997 27.2882 25.4143 27.2678L29.4014 21.9293L36.1788 25.0143L29.3049 40.3688L21.6433 36.8818C21.3732 36.759 21.0549 36.8796 20.9331 37.1524L17.4742 44.8775L2.24644 37.9466L12.7999 14.3741ZM21.691 38.0921L28.1708 41.0413L18.766 44.6256L21.691 38.0921ZM23.5341 43.9661L29.7635 41.5915C29.7686 41.5898 29.7731 41.587 29.7776 41.5853C29.7916 41.579 29.8045 41.5734 29.818 41.566C29.8281 41.5609 29.8376 41.5558 29.8472 41.5507C29.8601 41.5422 29.873 41.5343 29.8854 41.5247C29.8938 41.5185 29.9016 41.5128 29.9101 41.5066C29.9224 41.4964 29.9342 41.4856 29.946 41.4737C29.9527 41.467 29.9595 41.4613 29.9662 41.4534C29.9774 41.4415 29.987 41.4285 29.9971 41.4154C30.0033 41.4081 30.0094 41.4001 30.0151 41.3917C30.024 41.3798 30.0313 41.3656 30.0398 41.352C30.0448 41.3419 30.0504 41.3328 30.0549 41.3226C30.0577 41.3175 30.0605 41.313 30.0633 41.3085L37.378 24.9668C37.4998 24.6939 37.3802 24.3736 37.1091 24.2507L30.0628 21.0428L30.1678 20.9013L32.3006 20.1807L35.3625 21.2998C35.4215 21.3213 35.4838 21.3327 35.5455 21.3327C35.6236 21.3327 35.7011 21.3157 35.7729 21.2817C35.902 21.2206 36.0014 21.1108 36.0502 20.9755C36.3231 20.2158 36.4466 19.4816 36.4236 18.786L41.6273 17.0266L46.9405 32.9981L38.9707 35.6937C38.8354 35.7395 38.7243 35.8375 38.6602 35.966C38.5974 36.0944 38.5867 36.2428 38.6322 36.3792L41.3051 44.4156L25.4643 49.7717L23.5341 43.9661Z" fill="black" stroke="black" stroke-width="0.8"/>
</svg>
