<svg width="31" height="31" viewBox="0 0 31 31" fill="none" xmlns="http://www.w3.org/2000/svg">
<rect x="0.5" y="0.5" width="30" height="30" rx="1.5" stroke="#F4343D"/>
<path d="M17.9089 19.2359C17.4772 19.1707 17.4674 18.0449 17.4674 18.0449C17.4674 18.0449 18.7357 16.8538 19.0121 15.2522C19.7556 15.2522 20.2149 13.5495 19.4712 12.9504C19.5024 12.3198 20.427 8 15.7455 8C11.0639 8 11.9886 12.3198 12.0196 12.9504C11.2759 13.5495 11.7352 15.2522 12.4788 15.2522C12.7551 16.8538 14.0234 18.0449 14.0234 18.0449C14.0234 18.0449 14.0136 19.1707 13.582 19.2359C12.1917 19.4457 7 21.618 7 24H15.7455H24.4909C24.4909 21.618 19.2992 19.4457 17.9089 19.2359Z" fill="#F4343D"/>
</svg>
